<svg xmlns="http://www.w3.org/2000/svg" xmlns:xlink="http://www.w3.org/1999/xlink" version="1.1" width="567.86257" height="275.443" viewBox="0 0 567.86257 275.443">
<defs>
<clipPath id="clip_0">
<path transform="matrix(1,0,0,-1,-16.83416,559.7575)" d="M16.83416 284.3145H584.6967V559.7575H16.83416Z" fill-rule="evenodd"/>
</clipPath>
<clipPath id="clip_1">
<path transform="matrix(1,0,0,-1,-16.83416,559.7575)" d="M11.3386 286.9278H583.937V554.9619H11.3386Z"/>
</clipPath>
</defs>
<g clip-path="url(#clip_0)">
<g clip-path="url(#clip_1)">
<text xml:space="preserve" transform="matrix(1.4199032 0 -0 1.4313539 -154.93006 653.6931)" font-size="9.922669" font-family="NimbusRomNo9L"><tspan y="-707.19119" x="116.57725 123.74141 128.70275 133.10842 140.57027 143.32877 148.2901 153.1522 157.55788 162.51921 165.27771 169.68338 174.08904 181.55089 186.51222 193.97408 200.03684 202.79534 207.20099 214.92082 219.32648 222.63072 227.59207 232.57324 235.33174 242.7936 246.65352 251.61487 256.5762 259.88044 262.63896 265.9432 270.34886 273.10734 278.06867 280.82716 285.78849 293.2503 297.11024 301.5159 304.27439 310.6348 313.93907 318.9004 324.71507 328.01933 336.58259 340.98826 345.94956 353.41139 358.9284 362.23268 367.5512 372.53239 378.59516 383.55647 390.46263 395.97966 400.94096 405.34663 410.60563 414.46556 417.22404 421.6297 428.53587 431.84013 436.80143 442.61613 447.57743 452.53877 455.29725 462.75907 466.06333 474.6266 479.03227 483.99357 491.45539 496.9724 500.27668">whentokenizedbyLlama-3,tosub-trainingsetsforITandSIT.The&#xfb01;nalsizeforbothITandSIT</tspan></text>
<text xml:space="preserve" transform="matrix(1.4263297 0 -0 1.4249047 -154.93006 653.6931)" font-size="9.96758" font-family="NimbusRomNo9L"><tspan y="-699.4774" x="116.4098 120.287189 125.27098 130.25476 133.57396 136.34494 139.66416 144.08977 146.86075 151.84455 154.61553 159.59932 167.075 170.9524 175.37798 178.14897 184.50829 187.27928 193.64856 198.63236 203.61614 213.29467 216.06565 221.04944 224.92684 227.69782 232.12342 237.10721 241.5328 245.95842 249.83582 255.41765 258.73686 263.7206 266.4916 271.47538 274.24638 277.01737 279.53913 284.37339 288.799 291.56999 295.90586 300.88963 304.76704 307.53804 312.5218 316.9474 323.85493 328.28056 332.70616 337.13179 344.60743 347.92665 356.49873 360.92436 365.9081 373.3838 378.92576 382.24497 390.81706 393.58805 398.5718 402.44923 405.22019 409.6458 414.62959 419.0552 425.9727 430.95649 435.38209 438.15309 443.96415 448.94795 453.37355 459.73286 466.65037 474.40516 478.83076 481.60176 486.02735 491.01115 493.7821 498.7659">sub-trainingsetsis40Kinstances.Intuitively,sinceeachITandSITinstancepairhasamatching</tspan></text>
<text xml:space="preserve" transform="matrix(1.425617 0 -0 1.425617 -154.93006 653.6931)" font-size="9.9626" font-family="NimbusRomNo9L"><tspan y="-688.219" x="116.468 119.2376 123.660999 128.64229 133.62358 136.39319 141.37448 146.35578 150.5301 155.36196 159.78536 163.1029 170.57485 174.4503 179.4316 184.41289 187.73044 190.50005 194.92345 198.7989 206.27085 209.04045 216.51239 222.05159 225.36914 233.94693 241.0403 246.02159 251.00289 253.77249 261.24446 266.22575 273.1398 280.89073 285.872 290.2954 297.76737 301.64283 306.6241 311.6054 314.92295 317.69255 322.11595 327.92414 330.69374 335.67503 340.09843 347.57038 350.33998 355.32127 362.23533 365.0049 369.4283 373.30378 380.77574 383.54533 391.01728 394.3348 399.68473">length,everysub-taskinSITwouldbemuchshorterthanthetaskinIT.</tspan></text>
<text xml:space="preserve" transform="matrix(1.425617 0 -0 1.425617 -154.93006 653.6931)" font-size="9.9626" font-family="NimbusRomNo9L"><tspan y="-670.722" x="108">&#x2022;</tspan></text>
<text xml:space="preserve" transform="matrix(1.425617 0 -0 1.425617 -154.93006 653.6931)" font-size="9.9626" font-family="NimbusRomNo9L"><tspan y="-670.722" x="116.1096 123.3026 128.56285 131.33246 136.31375">Atthe</tspan></text>
<text xml:space="preserve" transform="matrix(1.425617 0 -0 1.425617 -154.93006 653.6931)" font-size="9.9626" font-family="NimbusRomNo9L" font-weight="bold"><tspan y="-670.722" x="143.228 146.54555 151.52684 155.4023 163.43215 166.20175 170.47571 175.35738 179.78078">tasklevel</tspan></text>
<text xml:space="preserve" transform="matrix(1.425617 0 -0 1.425617 -154.93006 653.6931)" font-size="9.9626" font-family="NimbusRomNo9L"><tspan y="-670.722" x="182.55">:</tspan></text>
<text xml:space="preserve" transform="matrix(1.425617 0 -0 1.425617 -154.93006 653.6931)" font-size="9.9626" font-family="NimbusRomNo9L"><tspan y="-653.224" x="123.94 128.9213">1.</tspan></text>
<text xml:space="preserve" transform="matrix(1.4112887 0 -0 1.4400907 -154.93006 653.6931)" font-size="9.862471" font-family="NimbusRomNo9L" font-weight="bold"><tspan y="-646.65878" x="137.77875 143.26229 147.09879 152.74997 156.03417 159.87067 165.3542 168.09598 170.83776">SIT-split</tspan></text>
<text xml:space="preserve" transform="matrix(1.4112887 0 -0 1.4400907 -154.93006 653.6931)" font-size="9.862471" font-family="NimbusRomNo9L"><tspan y="-646.65878" x="174.12201 179.81267 188.3141 194.8628 199.79402 204.17296 208.5519 213.48313 221.15613 226.08736 231.0186 234.8551 241.40378 245.78272 250.16167 254.5406 261.63175 265.46824 269.84718 274.7784 279.70967 284.08863 289.01988 291.76164 294.5034 298.88233 303.79383 306.53559 311.46684 315.30335 318.0451 321.32929 326.26054 330.6395 333.38124 336.123 341.05424 348.15525 353.0865 357.46543 361.84437 368.94538 371.68714 376.61839 379.36015 386.45127 394.12428 399.0555 401.79728 404.53904 407.2808 412.21205 414.9538 421.5025 425.339 428.08076 433.012 437.94328 440.685 445.06398 448.34815 451.0899 455.46885 459.30537 466.40635 471.3376 475.71656 478.4583 485.007 489.93824 494.86949 497.61125 502.54249 505.28425">:Wedecomposeeachsequentialinstructionbackintomultiplesingle-taskdatapoints</tspan></text>
<text xml:space="preserve" transform="matrix(1.4112887 0 -0 1.4400907 -154.93006 653.6931)" font-size="9.862471" font-family="NimbusRomNo9L"><tspan y="-635.8594" x="137.77875 142.15769 147.08892 154.49564 157.23741 162.16864 164.91042 172.31713 175.0589 179.99013 184.36908 194.52742 198.90636 205.21836 212.07277 214.81455 218.09876 222.47769 225.21947 230.1507 232.89247 237.8237 245.23041 249.06691 253.44586 256.18763 261.75993 267.7859 272.71714 275.4589 281.78074 286.71199 290.83448 300.43067 305.9142 309.1984 314.29728 317.58149 321.418 326.34925 329.091 331.83274 337.05986 341.9911 346.37004 349.1118 353.49073 357.32725 361.70619 366.9234 371.85466 376.23359 382.54557 385.28733 390.21858 397.07298 400.9095 405.28843 412.96144 419.8257 422.56748 426.9464 430.7829 435.71415 442.02613 445.31034 449.68928 454.6205 459.55177 462.29353 466.67247 471.6037 474.34547 478.18199 483.94163 488.3206 494.63255 500.1161 503.4003">andjointhemasatrainingset.ThisnewSIT-splitdatasethasthesametasks(contents)asSIT</tspan></text>
<text xml:space="preserve" transform="matrix(1.425617 0 -0 1.425617 -154.93006 653.6931)" font-size="9.9626" font-family="NimbusRomNo9L"><tspan y="-631.406" x="136.394 141.17604 146.15734 151.41759 154.1872 160.5533 165.53459 168.85214 173.83344 178.7151 183.1385 190.61045 195.59174 200.32396 207.51696 214.98889 217.7585 222.73979 225.5094 232.98134 239.89539 242.665 247.64629 250.4159 254.8393 260.09956 265.08085 270.88905 275.87034 280.85163 290.53529 294.41075 297.18034 302.16163 307.1429 309.9125 314.3359 317.65345 320.42304 324.84645 328.7219 336.19386 341.17515 345.59855 348.36814 355.2822 360.2635 365.24479 368.01438 372.99568 375.76527 379.64073">butisbrokendownintoatotalof98Ksingle-taskdatapoints.</tspan></text>
<text xml:space="preserve" transform="matrix(1.425617 0 -0 1.425617 -154.93006 653.6931)" font-size="9.9626" font-family="NimbusRomNo9L"><tspan y="-617.202" x="123.94 128.9213">2.</tspan></text>
<text xml:space="preserve" transform="matrix(1.4398024 0 -0 1.4115713 -154.93006 653.6931)" font-size="10.061731" font-family="NimbusRomNo9L" font-weight="bold"><tspan y="-623.34347" x="135.0502 140.64453 144.55854 150.36415 153.7147 162.09615 167.69048 170.48764 173.8382">SIT-multi</tspan></text>
<text xml:space="preserve" transform="matrix(1.4398024 0 -0 1.4115713 -154.93006 653.6931)" font-size="10.061731" font-family="NimbusRomNo9L"><tspan y="-623.34347" x="176.63245 183.61528 190.87985 195.91072 200.94159 203.73876 208.76963 213.23702 219.62622 224.09363 229.12448 234.15535 236.95252 240.30307 244.77048 248.6845 251.48166 254.27883 259.3097 267.36915 271.68565 276.7165 281.74739 286.21479 289.56538 292.36253 300.19056 304.65797 309.68885 315.52464 318.32179 325.26438 328.06153 333.0924 337.5598 343.38557 350.65013 358.14613 361.49668 365.9641 369.87815 374.909 379.37644 384.4073 391.91337 399.40937 403.3234 407.7908 412.8217 417.85255 422.31999 427.35084 430.14799 432.94514 437.41258 443.23829 446.03544 451.0663 454.98036 457.7775 461.12806 466.15895 470.62635 473.4235 476.22065 481.25154 489.32106 494.3519">:Anothercontrastingexperimentisthatwereshapeasequentialinstructionby</tspan></text>
<text xml:space="preserve" transform="matrix(1.4398024 0 -0 1.4115713 -154.93006 653.6931)" font-size="10.061731" font-family="NimbusRomNo9L"><tspan y="-612.32589" x="135.0502 137.84737 142.87824 145.6754 150.1428 153.49337 156.29053 160.75792 165.0241 170.05496 172.85213 177.88298 185.75127 188.54843 193.01584 196.92984 201.96073 208.71215 213.17955 218.2104 226.07869 229.42925 233.89665 237.81067 242.84154 247.8724 252.90329 256.81733 261.28474 268.03617 270.8333 278.70158 282.05216 287.083 290.4336 301.099 306.12989 308.92704 313.39445 316.1916 321.22248 326.25337 331.2842 335.75166 339.1022 341.89936 344.6965 349.62678 356.93159 361.96247 366.42988 369.22703 373.69444 380.3855 386.5332 391.5641 398.8689 401.66606 405.01664 409.48405 412.2812 417.31208 420.10923 425.14009 433.00837 435.8055 440.83638 444.7504 447.54756 452.01499 457.04585 461.51329 465.98069 472.73213 477.19953 481.66694 489.53523 494.5661">interleavingtasksandresponsestoformdialogue-likedata.Thetraininginstancescanbe</tspan></text>
<text xml:space="preserve" transform="matrix(1.4112887 0 -0 1.4400907 -154.93006 653.6931)" font-size="9.862471" font-family="NimbusRomNo9L"><tspan y="-589.4" x="137.77875 141.06295 145.99417 149.27838 156.95139 161.88262 164.62438 169.00333 171.7451 176.12404 183.26447 187.6434">formulatedas</tspan></text>
<text xml:space="preserve" transform="matrix(1.425617 0 -0 1.425617 -154.93006 653.6931)" font-size="9.9626" font-family="CMMIB10" font-weight="bold" font-style="italic"><tspan y="-595.384" x="191.736">i</tspan></text>
<text xml:space="preserve" transform="matrix(1.425617 0 -0 1.425617 -154.93006 653.6931)" font-size="6.9738" font-family="CMR7"><tspan y="-593.89" x="195.769">1</tspan></text>
<text xml:space="preserve" transform="matrix(1.425617 0 -0 1.425617 -154.93006 653.6931)" font-size="9.9626" font-family="CMSY10" font-style="italic"><tspan y="-595.384" x="201.318">&#x2295;</tspan></text>
<text xml:space="preserve" transform="matrix(1.425617 0 -0 1.425617 -154.93006 653.6931)" font-size="9.9626" font-family="CMMIB10" font-weight="bold" font-style="italic"><tspan y="-595.384" x="210.147">y</tspan></text>
<text xml:space="preserve" transform="matrix(1.425617 0 -0 1.425617 -154.93006 653.6931)" font-size="6.9738" font-family="CMMI7" font-style="italic"><tspan y="-598.999" x="216.397">?</tspan></text>
<text xml:space="preserve" transform="matrix(1.425617 0 -0 1.425617 -154.93006 653.6931)" font-size="6.9738" font-family="CMR7"><tspan y="-592.911" x="216.028">1</tspan></text>
<text xml:space="preserve" transform="matrix(1.425617 0 -0 1.425617 -154.93006 653.6931)" font-size="9.9626" font-family="CMSY10" font-style="italic"><tspan y="-595.384" x="222.056">&#x2295;</tspan></text>
<text xml:space="preserve" transform="matrix(1.425617 0 -0 1.425617 -154.93006 653.6931)" font-size="9.9626" font-family="CMMIB10" font-weight="bold" font-style="italic"><tspan y="-595.384" x="230.885">i</tspan></text>
<text xml:space="preserve" transform="matrix(1.425617 0 -0 1.425617 -154.93006 653.6931)" font-size="6.9738" font-family="CMR7"><tspan y="-593.89" x="234.918">2</tspan></text>
<text xml:space="preserve" transform="matrix(1.425617 0 -0 1.425617 -154.93006 653.6931)" font-size="9.9626" font-family="CMSY10" font-style="italic"><tspan y="-595.384" x="240.467">&#x2295;</tspan></text>
<text xml:space="preserve" transform="matrix(1.425617 0 -0 1.425617 -154.93006 653.6931)" font-size="9.9626" font-family="CMMIB10" font-weight="bold" font-style="italic"><tspan y="-595.384" x="249.296">y</tspan></text>
<text xml:space="preserve" transform="matrix(1.425617 0 -0 1.425617 -154.93006 653.6931)" font-size="6.9738" font-family="CMMI7" font-style="italic"><tspan y="-598.999" x="255.545">?</tspan></text>
<text xml:space="preserve" transform="matrix(1.425617 0 -0 1.425617 -154.93006 653.6931)" font-size="6.9738" font-family="CMR7"><tspan y="-592.911" x="255.176">2</tspan></text>
<text xml:space="preserve" transform="matrix(1.425617 0 -0 1.425617 -154.93006 653.6931)" font-size="9.9626" font-family="CMSY10" font-style="italic"><tspan y="-595.384" x="261.205">&#x2295;</tspan></text>
<text xml:space="preserve" transform="matrix(1.425617 0 -0 1.425617 -154.93006 653.6931)" font-size="9.9626" font-family="CMSY10" font-style="italic"><tspan y="-595.384" x="270.02986 274.4612 278.89259">&#x00b7;&#x00b7;&#x00b7;</tspan></text>
<text xml:space="preserve" transform="matrix(1.425617 0 -0 1.425617 -154.93006 653.6931)" font-size="9.9626" font-family="CMSY10" font-style="italic"><tspan y="-595.384" x="282.73616">&#x2295;</tspan></text>
<text xml:space="preserve" transform="matrix(1.425617 0 -0 1.425617 -154.93006 653.6931)" font-size="9.9626" font-family="CMMIB10" font-weight="bold" font-style="italic"><tspan y="-595.384" x="291.565">i</tspan></text>
<text xml:space="preserve" transform="matrix(1.425617 0 -0 1.425617 -154.93006 653.6931)" font-size="6.9738" font-family="CMMI7" font-style="italic"><tspan y="-593.89" x="295.598">n</tspan></text>
<text xml:space="preserve" transform="matrix(1.425617 0 -0 1.425617 -154.93006 653.6931)" font-size="9.9626" font-family="CMSY10" font-style="italic"><tspan y="-595.384" x="302.101">&#x2295;</tspan></text>
<text xml:space="preserve" transform="matrix(1.425617 0 -0 1.425617 -154.93006 653.6931)" font-size="9.9626" font-family="CMMIB10" font-weight="bold" font-style="italic"><tspan y="-595.384" x="310.929">y</tspan></text>
<text xml:space="preserve" transform="matrix(1.425617 0 -0 1.425617 -154.93006 653.6931)" font-size="6.9738" font-family="CMMI7" font-style="italic"><tspan y="-598.999" x="317.179">?</tspan></text>
<text xml:space="preserve" transform="matrix(1.425617 0 -0 1.425617 -154.93006 653.6931)" font-size="6.9738" font-family="CMMI7" font-style="italic"><tspan y="-592.921" x="316.81">n</tspan></text>
<text xml:space="preserve" transform="matrix(1.4112887 0 -0 1.4400907 -154.93006 653.6931)" font-size="9.862471" font-family="NimbusRomNo9L"><tspan y="-589.4" x="325.5045 330.988 337.01399 341.94523 344.68699 350.73268 354.56916 358.94813 361.68989 366.62113 373.75169 377.58818 380.32994 388.00294 392.93418 395.67594 400.0549 402.79664 407.1756 413.22129 419.8094 427.4824 432.41365 435.1554 437.89717 441.18138 443.92314 448.85438 452.13859 459.26914 463.64808 468.5793 473.11607 477.8895 482.26844 485.55265 489.38917 493.7681 496.50987 499.25163 504.18287">.Thissetupsimulatesamult-turnconversation</tspan></text>
<text xml:space="preserve" transform="matrix(1.4112887 0 -0 1.4400907 -154.93006 653.6931)" font-size="9.862471" font-family="NimbusRomNo9L"><tspan y="-578.6007" x="137.4161 144.5368 149.46804 153.84699 157.13118 163.67986 170.22855 175.15978 178.99628 183.37522 188.82917 192.11336 196.4923 199.23407 203.07057 207.44951 213.45575 220.00444 223.84095 226.58272 231.51395 236.44518 239.18695 243.56589 246.85009 251.78131 256.71257 261.0915 264.37568 271.47669 274.21846 279.1497 282.9862 285.72798 289.01216 293.9434 298.32234 301.0641 303.80586 308.7371 315.8381 319.12229 324.05357 326.7953 329.53706 334.22175 341.34245 345.7214 352.8224 357.75364 364.85466 371.40336 379.07637 384.0076 388.93885 393.31779 398.22929 403.16053 407.53947 412.4707 416.84968 420.13386 424.5128 427.25456 429.9963 434.92756 442.02857 444.77033 451.87135 455.70783 459.83036 464.61366 468.99259 472.2768 476.65574 481.56724 484.85145 489.78269 494.71394 499.64518 504.57643 508.41294">whereauserraisesasingle-queryinstructionfollowedbyamodelgenerationinseveralrounds.</tspan></text>
<text xml:space="preserve" transform="matrix(1.4320177 0 -0 1.4192448 -154.93006 653.6931)" font-size="10.00733" font-family="NimbusRomNo9L"><tspan y="-565.3269" x="107.20966 113.32414 118.327808 125.242877 128.0249 132.46817 137.47183 142.47548 145.25753 152.73299 157.17626 162.17992 169.65538 172.43743 176.88068 180.77353 188.23899 192.68225 197.6859 200.46794 204.91121 207.69324 210.47527 215.47893 222.9544 227.24755 232.2512 237.25487 241.69812 245.03057 247.81259 255.5983 260.04154 265.0452 267.82725 274.1919 278.63517 281.9676 288.88267 291.6647 294.44673 298.3396 301.1216 305.56489 313.04035 315.8224 323.29786 328.61177 333.055 338.05867 340.8407">ThelengthandtaskablationexperimentsarelistedinTable</tspan></text>
<text fill="#4ca6a6" xml:space="preserve" transform="matrix(1.4320177 0 -0 1.4192448 -154.93006 653.6931)" font-size="10.00733" font-family="NimbusRomNo9L"><tspan y="-565.3269" x="347.75599">5</tspan></text>
<text xml:space="preserve" transform="matrix(1.4320177 0 -0 1.4192448 -154.93006 653.6931)" font-size="10.00733" font-family="NimbusRomNo9L"><tspan y="-565.3269" x="355.2314">(</tspan></text>
<text xml:space="preserve" transform="matrix(1.4320177 0 -0 1.4192448 -154.93006 653.6931)" font-size="10.00733" font-family="NimbusRomNo9L"><tspan y="-565.3269" x="358.81205">T</tspan></text>
<text xml:space="preserve" transform="matrix(1.4320178 0 -0 1.4192447 -154.93006 653.6931)" font-size="8.005885" font-family="NimbusRomNo9L"><tspan y="-565.32699" x="365.268 371.54463">OP</tspan></text>
<text xml:space="preserve" transform="matrix(1.4320177 0 -0 1.4192448 -154.93006 653.6931)" font-size="10.00733" font-family="NimbusRomNo9L"><tspan y="-565.3269" x="376.2388 379.57127 385.14533 390.5593 395.56294 401.3672 404.14924 409.1529">).Forthe</tspan></text>
<text xml:space="preserve" transform="matrix(1.4320177 0 -0 1.4192448 -154.93006 653.6931)" font-size="10.00733" font-family="NimbusRomNo9L" font-style="italic"><tspan y="-565.3269" x="416.065 421.06867 426.07234 428.85438 433.858 437.19047 439.9725 444.26564 448.7089 453.15214">data-level</tspan></text>
<text xml:space="preserve" transform="matrix(1.4320177 0 -0 1.4192448 -154.93006 653.6931)" font-size="10.00733" font-family="NimbusRomNo9L"><tspan y="-565.3269" x="458.41587 462.30873 466.75196 469.534 472.31605 475.09806 480.1017 485.10539 490.079 497.3043">setting,we</tspan></text>
<text xml:space="preserve" transform="matrix(1.4112887 0 -0 1.4400907 -154.93006 653.6931)" font-size="9.862471" font-family="NimbusRomNo9L"><tspan y="-546.3442" x="109.09648 114.02772 116.769489 120.60599 124.984928 129.76822 134.54164 138.92058 144.35478 147.09656 152.02779 156.40674 161.29853 166.78206 170.06626 178.24224 185.91524 190.84647 195.7777 200.15665 202.89842 208.88494 216.00563 218.7474 221.48918 228.57042 231.85462 236.23355 241.1648 246.09603 250.47496 254.8539 261.93519 264.67695 269.6082 274.4408 278.81974 285.90104 290.27998 295.2112 300.14247 305.0737 307.81547 313.80198 317.08619 321.46513 329.13813 333.5072 336.24897 343.33024 347.16676 352.098 357.02925 361.40818 364.69236 367.4341 372.36537 377.7996 380.54136 387.62263 390.90684 399.0828 406.7558 411.68705 416.6183 420.99726 423.739 429.72554 434.10447 438.4834 441.7676 446.69886 450.53538 456.52189 460.90083 463.64259 468.53437 472.6569 477.34159 481.72053 484.46229 489.39353 493.77247 496.51423 499.25599 504.18724">discoverthatSITmodelswithreducedtokencountsremainsuperiortoITmodelsacrossallevaluation</tspan></text>
<text xml:space="preserve" transform="matrix(1.4213337 0 -0 1.4299133 -154.93006 653.6931)" font-size="9.932667" font-family="NimbusRomNo9L"><tspan y="-539.35659" x="108.325458 112.73556 116.04314 118.80441 121.56569 125.97579 129.28337 132.04465 136.45476 141.43103 144.1923 149.15865 154.12499 156.88628 161.29637 165.70647 168.46776 171.22905 176.19539 183.64488 186.40618 191.37252 195.78261 201.037 203.7983 208.76464 215.6579 218.41918 226.14679 231.11313 234.4207 239.23805 244.05539 248.4655 256.1931 260.6032 265.56956 270.814 275.78034 280.74668 285.1568 291.51368 296.48 301.44636 306.69084 310.55464 313.31593 317.726 327.94673 331.2543 334.56187 339.5282 349.739 352.50028 355.26158 361.61848 365.8796 370.84596 375.81227 380.7786 384.64244 389.60877 392.91633 399.8096 402.5709 410.0303 417.75794 422.72428 426.03187 432.9251 435.6864 440.65275 445.51976 449.92985 454.89619 458.76 464.34217 470.96726 475.2284 480.14509 484.55519 487.86277 492.8291 495.5904 500.55674">criteria,indicatingthattheimprovementdoesnotstemfromitsexposuretomoretokens.Regarding</tspan></text>
<text xml:space="preserve" transform="matrix(1.424904 0 -0 1.4263305 -154.93006 653.6931)" font-size="9.957617" font-family="NimbusRomNo9L"><tspan y="-529.8069" x="108.05405 110.822269 115.80107">the</tspan></text>
<text xml:space="preserve" transform="matrix(1.424904 0 -0 1.4263305 -154.93006 653.6931)" font-size="9.957617" font-family="NimbusRomNo9L" font-style="italic"><tspan y="-529.8069" x="122.71438 125.4826 130.46141 134.33493 137.10314 142.08196 147.06076 151.48195 155.90314 159.21901 161.98723 166.25905 170.68024 175.10143">instance-level</tspan></text>
<text xml:space="preserve" transform="matrix(1.424904 0 -0 1.4263305 -154.93006 653.6931)" font-size="9.957617" font-family="NimbusRomNo9L"><tspan y="-529.8069" x="180.37123 184.24475 188.66594 191.43415 194.20236 196.97058 201.94939 206.92819 211.907 216.32819 219.0964 221.86463 226.84343 231.82224 236.80104 241.77986 249.24806 252.56395 261.1474 265.02095 267.78916 270.55738 275.5362 280.515 283.28324 286.05146 293.51969 298.49848 303.4773 306.2455 311.22434 315.64555 318.96144 322.2773 327.25614 330.57203 338.31907 344.68199 347.45024 352.42903 359.33964 364.87605 368.19197 376.7754 384.52244 389.50126 394.48008 398.90126 401.66947 408.0324 410.80064 418.26887 423.24766 427.66886 432.64765 437.06886 440.38475 443.15296 450.06358 452.8318 457.25297 461.1265 466.10533 469.97883 474.9676 477.7358 482.71464 489.6252 495.16166 498.47755">setting,althoughITslightlyoutperformstheSITmodelsingenerictasks,theSIT</tspan></text>
<text xml:space="preserve" transform="matrix(1.4398024 0 -0 1.4115713 -154.93006 653.6931)" font-size="10.061731" font-family="NimbusRomNo9L"><tspan y="-524.3289" x="106.93594 114.76398 119.794849 124.82571 129.29312 132.09029 138.54991 143.58078 147.84696 152.7269 159.73992 166.75295 171.22035 174.01752 178.48491 182.95232 188.83844 193.30585 198.33672 203.36759 210.38062 213.17778 220.75428 224.66829 229.1357 234.16657 239.19744 243.66484 248.6957 251.49286 254.27997 258.74739 264.09016 266.8873 271.35475 275.26875 280.29963 284.21366 290.0193 296.16703 301.19789 303.99504 310.4446 313.24177 321.0698 326.10069 328.8978 331.69496 336.16239 342.62205 345.4192 350.45005 354.91749 360.26026 365.85459 369.20515 377.88844 380.68559 387.14524 392.1761 396.09013 400.55757 403.9081 408.939 414.2717 417.62229 422.65315 428.54936 431.3465 436.37736 441.40824 446.43913 449.78968 454.82057 459.85145 463.202 465.99916 470.46656 475.49745 483.07395 485.8711 490.3385 494.25254">modelshaveaclearedgeinsequentialtasks.ThisimpliesthatSITisusefulforlong-horizontask</tspan></text>
<text xml:space="preserve" transform="matrix(1.4383905 0 -0 1.4129568 -154.93006 653.6931)" font-size="10.051865" font-family="NimbusRomNo9L"><tspan y="-512.808" x="107.04092 111.35316 116.23836 120.701389 125.164409 130.19034 132.98476 135.77918 140.80512 148.28369 152.50548 157.38065 161.84368 169.33232 176.58977 181.6157 186.07874 193.55733 196.35175 201.37767 208.30342 213.32935 217.79239 220.5868 227.51255 230.30696 234.76999 239.79593 244.82187 247.61629 255.09488 260.1208 264.58384 269.04685 274.07279 281.89314 286.35615 292.72904 296.63923 301.66517 306.69108 310.03834 312.83277 317.29579 323.10578 327.5688 333.93165 336.72608 341.75199 346.77793 354.26655 358.72956 365.10246 367.89689 372.9228 379.8385 387.65885 392.68476 395.4792 398.2736 401.06803 404.41529 407.20973 411.67274 415.58293 423.07157 428.09748 432.56053 435.35493 440.38087 443.72813 450.65385 453.44828 459.81114 464.83705 468.1843 472.64735 476.55754 481.02058 484.36784 489.25303 493.71604 498.74198">executionevenwhenthedatalengthbecomesshorteraslongasthemulti-tasknatureispreserved.</tspan></text>
<text xml:space="preserve" transform="matrix(1.414166 0 -0 1.4371606 -154.93006 653.6931)" font-size="9.882578" font-family="NimbusRomNo9L"><tspan y="-493.35023" x="108.87452 114.22099 119.16228 124.95347 127.70083 132.64212">Forthe</tspan></text>
<text xml:space="preserve" transform="matrix(1.414166 0 -0 1.4371606 -154.93006 653.6931)" font-size="9.882578" font-family="NimbusRomNo9L" font-style="italic"><tspan y="-493.35023" x="139.53379 142.28115 147.22243 151.06676 155.45462 158.74552 161.49288 165.7325 170.12036 174.50823">task-level</tspan></text>
<text xml:space="preserve" transform="matrix(1.414166 0 -0 1.4371606 -154.93006 653.6931)" font-size="9.882578" font-family="NimbusRomNo9L"><tspan y="-493.35023" x="179.76595 184.00557 188.94686 193.88816 198.276 201.56691 204.31427 212.00292 216.39078 221.33206 224.07944 227.92375 232.8947 235.64206 240.58335 247.4715 252.41278 256.80067 260.09153 263.38243 268.32374 271.61463 279.30329 283.69117 288.63246 293.02033 299.9184 304.85969 310.6509 313.39826 318.33955 325.2277 330.72245 334.01335 339.13249 342.42338 346.2677 351.209 353.95637 356.7037 361.95133 364.69868 371.04328 374.8876 377.63496 382.57627 387.51756 390.26493 395.75965 400.14753 404.5354 409.47669 412.22404 414.97138 422.42289 429.44938 434.3907 437.68159 441.5259 448.42396 451.1713 456.1126 460.5005 467.9421 470.68946 475.63075 480.01863 485.26625 490.20756 496.00865 498.75599 503.69728">experiments,theperformanceoftheSIT-splitissigni&#xfb01;cantlyworsethanthatofthe</tspan></text>
<text xml:space="preserve" transform="matrix(1.4277539 0 -0 1.4234834 -154.93006 653.6931)" font-size="9.977532" font-family="NimbusRomNo9L"><tspan y="-487.16508" x="107.838359 111.71961 114.49336 118.92339 123.91216 128.90093 133.33095 136.65348 144.12664 149.67414 152.99666 161.57733 166.41645 170.84647 174.16898 178.05025 180.82399 185.81276 193.29592 198.28469 202.7147 206.59598 211.58475 214.35849 217.13225 224.04666 226.82042 231.80919 236.23921 241.49736 244.27112 249.25988 253.54024 261.0134 266.00218 270.23268 275.07176 281.98619 284.75996 289.74873 296.67314 300.55439 304.98445 312.74696 319.6614 322.43516 326.8652 330.74647 338.21965 342.6497 347.63847 352.62724 355.40098 359.83103 364.8198 367.59355 371.47483 377.05226 380.37477 387.84794 392.27796 397.26673 402.2555 405.02928 407.803 410.57679 415.56556 420.55433 425.53309 431.0806 434.4031 439.58143 442.90394 450.66648 455.65525 458.42903 461.20277 466.47093 471.4597 475.8897 480.87849 485.3085 488.631 493.06108 495.8348 498.60859">standardSITversiondespitethattheyhavethesametaskcontents.Inaddition,SIT-multigenerally</tspan></text>
<text xml:space="preserve" transform="matrix(1.4184711 0 -0 1.432799 -154.93006 653.6931)" font-size="9.912662" font-family="NimbusRomNo9L"><tspan y="-473.14344" x="108.54408 112.40011 117.35644 120.65736 125.61369 130.01491 133.87094 137.72696 142.12819 148.50203 154.01348 157.31439 162.44916 165.75008 169.60611 174.56244 177.31816 180.0739 185.34743 190.0956 195.05193 200.32546 205.28179 210.23813 215.19446 219.59568 222.8966 227.85294 232.25417 235.55509 238.856 243.81233 247.11324 254.82529 261.19914 266.71058 270.0115 275.32469 280.32066 286.3773 291.33363 294.08934 300.46318 305.4195 309.8207 312.57646 315.33219 319.73338 323.0343 330.50843 333.80934 337.95283 342.76048 347.16169 351.56288 354.3186 360.69245 363.44819 368.4045 372.80574 378.07926 380.83497 385.7913 390.1925 395.14884 398.44978 403.4061 408.36244 411.66334 416.06455 418.82029 421.576 426.53233 434.00648 441.71855 446.67488 449.43058 452.1863 454.94206 459.89839 462.65409 469.57313 472.31895 476.72016 480.57618 485.5325 491.90635 494.66209 502.1362">surpassesSIT-splitbutunderperformsSIT.Thispatternrevealsthatincorporatingmultipletasksina</tspan></text>
<text xml:space="preserve" transform="matrix(1.425617 0 -0 1.425617 -154.93006 653.6931)" font-size="9.9626" font-family="NimbusRomNo9L"><tspan y="-464.618" x="108 111.87545 114.64505 119.62635 124.60765 127.37725 134.29129 137.0609 142.04219 145.91765 148.68726 152.0048 156.9861 161.4095 164.17911 166.94872 171.93001 179.40195 182.17156 188.53766 193.51895 197.94235 202.92365 207.34705 212.88625 217.30965 220.07926 224.50266 229.76291 234.18631 239.1676 246.63954 251.62084 255.84497 260.82627 263.59587 268.57716 276.0491 278.8187 283.8 290.71406 293.48365 297.90705 301.7825 306.7638 313.1299 317.00538 321.42878 326.41007 331.39137 335.81477 340.79606 343.56565 346.33525 350.75865 353.52824 356.29783 363.76979 368.19319 373.17448 378.15577 380.92536 388.3973 393.3786 400.29267 404.467 409.29887 413.72227 421.1942 428.94514 433.92643 437.24397 444.15803 448.58143 451.6499 454.96745 459.39085 463.81425 466.58384 469.10438 473.93623 478.35963">singleinstructionisbene&#xfb01;cialandhavingthetaskssequentiallycouldbeevenmoreeffective.</tspan></text>
<path transform="matrix(1.425617,0,0,-1.425617,2.777441,12.225281)" stroke-width=".797" stroke-linecap="butt" stroke-miterlimit="10" stroke-linejoin="miter" fill="none" stroke="#000000" d="M0 0H390.752"/>
<text xml:space="preserve" transform="matrix(1.425617 0 -0 1.425617 -154.93006 653.6931)" font-size="8.9664" font-family="NimbusRomNo9L" font-weight="bold"><tspan y="-429.709" x="112.157 118.63074 123.61606 126.10872 130.59192 133.57773 136.07039 140.55359 164.50284 169.47919 173.46027 176.44608 179.43189 181.92455 186.90987 191.39307 216.1762 224.64048 228.62155 231.60736 236.59268 241.07588">AblationSettingsMethod</tspan></text>
<text xml:space="preserve" transform="matrix(1.425617 0 -0 1.425617 -154.93006 653.6931)" font-size="8.9664" font-family="NimbusRomNo9L" font-weight="bold"><tspan y="-439.672" x="297.616 304.59187 308.57295 313.55827 317.53935 321.52043 324.01307 330.23576 335.39143 339.87464 343.36256 418.34858 423.3339 427.31498 432.3003 437.2856 441.2667 446.252 449.23783 451.73048 456.21369 460.94795 466.1036 470.5868 474.0747">GenericTaskSequentialTask</tspan></text>
<path transform="matrix(1.425617,0,0,-1.425617,208.46836,33.920289)" stroke-width=".299" stroke-linecap="butt" stroke-miterlimit="10" stroke-linejoin="miter" fill="none" stroke="#000000" d="M0 0H136.152"/>
<path transform="matrix(1.425617,0,0,-1.425617,416.77235,33.920289)" stroke-width=".299" stroke-linecap="butt" stroke-miterlimit="10" stroke-linejoin="miter" fill="none" stroke="#000000" d="M0 0H95.374"/>
<text xml:space="preserve" transform="matrix(1.425617 0 -0 1.425617 -154.93006 653.6931)" font-size="8.9664" font-family="NimbusRomNo9L"><tspan y="-419.472" x="251.458 259.42915 267.40028 272.87876 282.419 288.89277 294.87336 303.92045 310.3942 315.37953 323.35066 327.83387">MMLUARCGSM8k</tspan></text>
<text xml:space="preserve" transform="matrix(1.425617 0 -0 1.425617 -154.93006 653.6931)" font-size="8.9664" font-family="NimbusRomNo9L"><tspan y="-424.703" x="335.382 341.85575 346.33894 353.3148 357.29588">Human</tspan></text>
<text xml:space="preserve" transform="matrix(1.425617 0 -0 1.425617 -154.93006 653.6931)" font-size="8.9664" font-family="NimbusRomNo9L"><tspan y="-414.74" x="340.475 345.9535 350.21257 354.19364">Eval</tspan></text>
<text xml:space="preserve" transform="matrix(1.425617 0 -0 1.425617 -154.93006 653.6931)" font-size="8.9664" font-family="NimbusRomNo9L"><tspan y="-424.703" x="366.98 373.45378 375.9464 380.42964 384.4107 388.39179">Alpaca</tspan></text>
<text xml:space="preserve" transform="matrix(1.425617 0 -0 1.425617 -154.93006 653.6931)" font-size="8.9664" font-family="NimbusRomNo9L"><tspan y="-414.74" x="364.846 370.3245 374.58354 378.5646 383.29887 387.78205 390.02366">Eval2.0</tspan></text>
<text xml:space="preserve" transform="matrix(1.425617 0 -0 1.425617 -154.93006 653.6931)" font-size="8.9664" font-family="NimbusRomNo9L"><tspan y="-419.472" x="397.573 404.04676 410.5205 415.00373 421.47749 431.01774 438.98887 445.46263 450.44795 458.41908 462.90229">XQuADMGSM8k</tspan></text>
<text xml:space="preserve" transform="matrix(1.425617 0 -0 1.425617 -154.93006 653.6931)" font-size="8.9664" font-family="NimbusRomNo9L" font-style="italic"><tspan y="-419.472" x="470.451 474.9342 478.91529 483.3985 488.87699 492.85807 497.34126">SeqEval</tspan></text>
<path transform="matrix(1.425617,0,0,-1.425617,2.777441,69.60501)" stroke-width=".498" stroke-linecap="butt" stroke-miterlimit="10" stroke-linejoin="miter" fill="none" stroke="#000000" d="M0 0H390.752"/>
<text xml:space="preserve" transform="matrix(1.425617 0 -0 1.425617 -154.93006 653.6931)" font-size="8.9664" font-family="NimbusRomNo9L"><tspan y="-374.666" x="112.157 117.63547 121.61655 126.09975 130.58295 133.0756">Length</tspan></text>
<text xml:space="preserve" transform="matrix(1.425617 0 -0 1.425617 -154.93006 653.6931)" font-size="8.9664" font-family="NimbusRomNo9L"><tspan y="-364.703" x="115.255 117.74766 122.50881 126.48989 129.97782">/Task</tspan></text>
<text xml:space="preserve" transform="matrix(1.425617 0 -0 1.425617 -154.93006 653.6931)" font-size="8.9664" font-family="NimbusRomNo9L"><tspan y="-394.591" x="148.605 155.07874 159.05982 161.55248 165.53356 168.51937 171.01203 174.76894 179.11765 183.09873">Data-level</tspan></text>
<text xml:space="preserve" transform="matrix(1.425617 0 -0 1.425617 -154.93006 653.6931)" font-size="8.9664" font-family="NimbusRomNo9L"><tspan y="-399.572" x="213.844 216.8298 257.5552 262.0384 266.5216 268.7632 283.7909 288.2741 292.75733 294.99894 310.2687 314.7519 319.2351 321.4767 340.73655 345.21974 349.70295 351.94456 376.31523 380.7984 383.04 404.918 409.40119 413.8844 416.126 441.35746 445.84065 450.32386 452.56547 477.30375 481.78694 486.27015 488.51176">IT56.349.717.753.77.938.515.746.3</tspan></text>
<text xml:space="preserve" transform="matrix(1.425617 0 -0 1.425617 -154.93006 653.6931)" font-size="8.9664" font-family="NimbusRomNo9L"><tspan y="-389.61" x="213.844 218.82932 221.81513">SIT</tspan></text>
<text xml:space="preserve" transform="matrix(1.425617 0 -0 1.425617 -154.93006 653.6931)" font-size="8.9664" font-family="NimbusRomNo9L" font-weight="bold"><tspan y="-389.61" x="257.559 262.04219 266.5254 268.767 283.7857 288.26893 292.75215 294.99375 310.27247 314.75569 319.2389 321.4805 340.73136 345.21455 349.69776 351.93937 371.8268 376.31 380.7932 383.03483 404.9128 409.396 413.8792 416.12083 441.35227 445.83546 450.31867 452.56028 477.29856 481.78175 486.26496 488.50657">59.652.933.059.916.649.628.049.8</tspan></text>
<path transform="matrix(1.425617,0,0,-1.425617,54.738328,105.28961)" stroke-width=".299" stroke-linecap="butt" stroke-miterlimit="10" stroke-linejoin="miter" fill="none" stroke="#000000" d="M0 0H354.304"/>
<text xml:space="preserve" transform="matrix(1.425617 0 -0 1.425617 -154.93006 653.6931)" font-size="8.9664" font-family="NimbusRomNo9L"><tspan y="-369.659" x="148.605 151.5908 156.074 159.56194 162.0546 166.03568 170.51888 174.49996 178.48104 181.46685 183.9595 187.71642 192.06513 196.0462">Instance-level</tspan></text>
<text xml:space="preserve" transform="matrix(1.425617 0 -0 1.425617 -154.93006 653.6931)" font-size="8.9664" font-family="NimbusRomNo9L"><tspan y="-374.641" x="213.844 216.8298">IT</tspan></text>
<text xml:space="preserve" transform="matrix(1.425617 0 -0 1.425617 -154.93006 653.6931)" font-size="8.9664" font-family="NimbusRomNo9L" font-weight="bold"><tspan y="-374.641" x="257.559 262.04219 266.5254 268.767 283.7857 288.26893 292.75215 294.99375 310.27247 314.75569 319.2389 321.4805 340.73136 345.21455 349.69776 351.93937 371.8268 376.31 380.7932 383.03483">57.152.731.457.414.7</tspan></text>
<text xml:space="preserve" transform="matrix(1.425617 0 -0 1.425617 -154.93006 653.6931)" font-size="8.9664" font-family="NimbusRomNo9L"><tspan y="-374.641" x="404.916 409.39918 413.8824 416.124 441.35545 445.83863 450.32185 452.56346 477.30174 481.7849 486.26814 488.50975">27.416.140.9</tspan></text>
<text xml:space="preserve" transform="matrix(1.425617 0 -0 1.425617 -154.93006 653.6931)" font-size="8.9664" font-family="NimbusRomNo9L"><tspan y="-364.678" x="213.844 218.82932 221.81513 257.5552 262.0384 266.5216 268.7632 283.7909 288.2741 292.75733 294.99894 310.2687 314.7519 319.2351 321.4767 340.73655 345.21974 349.70295 351.94456 371.832 376.3152 380.7984 383.04">SIT56.251.428.154.311.7</tspan></text>
<text xml:space="preserve" transform="matrix(1.425617 0 -0 1.425617 -154.93006 653.6931)" font-size="8.9664" font-family="NimbusRomNo9L" font-weight="bold"><tspan y="-364.678" x="404.916 409.39918 413.8824 416.124 441.35545 445.83863 450.32185 452.56346 477.30174 481.7849 486.26814 488.50975">40.022.145.7</tspan></text>
<path transform="matrix(1.425617,0,0,-1.425617,54.738328,140.8316)" stroke-width=".299" stroke-linecap="butt" stroke-miterlimit="10" stroke-linejoin="miter" fill="none" stroke="#000000" d="M0 0H354.304"/>
<text xml:space="preserve" transform="matrix(1.425617 0 -0 1.425617 -154.93006 653.6931)" font-size="8.9664" font-family="NimbusRomNo9L"><tspan y="-339.747" x="148.605 153.36615 157.34723 160.83516 165.31836 168.30417 170.79683 174.55374 178.90245 182.88353">Task-level</tspan></text>
<text xml:space="preserve" transform="matrix(1.425617 0 -0 1.425617 -154.93006 653.6931)" font-size="8.9664" font-family="NimbusRomNo9L"><tspan y="-349.709" x="213.844 218.82932 221.81513 226.46869 229.4545 232.94243 237.42563 239.91829 242.41095 257.5552 262.0384 266.5216 268.7632 283.7909 288.2741 292.75733 294.99894 310.2687 314.7519 319.2351 321.4767 340.73655 345.21974 349.70295 351.94456 376.31523 380.7984 383.04 404.918 409.40119 413.8844 416.126 441.35746 445.84065 450.32386 452.56547 477.30375 481.78694 486.27015 488.51176">SIT-split54.851.523.750.19.135.715.811.9</tspan></text>
<text xml:space="preserve" transform="matrix(1.425617 0 -0 1.425617 -154.93006 653.6931)" font-size="8.9664" font-family="NimbusRomNo9L"><tspan y="-339.747" x="213.844 218.82932 221.81513 226.46869 229.4545 236.43036 240.91356 243.40622 245.89888 257.5552 262.0384 266.5216 268.7632 283.7909 288.2741 292.75733 294.99894 310.2687 314.7519 319.2351 321.4767 340.73655 345.21974 349.70295 351.94456 376.31523 380.7984 383.04 404.918 409.40119 413.8844 416.126 441.35746 445.84065 450.32386 452.56547 477.30375 481.78694 486.27015 488.51176">SIT-multi56.050.933.547.29.541.219.330.5</tspan></text>
<text xml:space="preserve" transform="matrix(1.425617 0 -0 1.425617 -154.93006 653.6931)" font-size="8.9664" font-family="NimbusRomNo9L"><tspan y="-329.784" x="213.844 218.82932 221.81513">SIT</tspan></text>
<text xml:space="preserve" transform="matrix(1.425617 0 -0 1.425617 -154.93006 653.6931)" font-size="8.9664" font-family="NimbusRomNo9L" font-weight="bold"><tspan y="-329.784" x="257.559 262.04219 266.5254 268.767 283.7857 288.26893 292.75215 294.99375 310.27247 314.75569 319.2389 321.4805 340.73136 345.21455 349.69776 351.93937 371.8268 376.31 380.7932 383.03483 404.9128 409.396 413.8792 416.12083 441.35227 445.83546 450.31867 452.56028 477.29856 481.78175 486.26496 488.50657">59.552.834.556.515.046.132.950.3</tspan></text>
<path transform="matrix(1.425617,0,0,-1.425617,2.777441,190.7197)" stroke-width=".498" stroke-linecap="butt" stroke-miterlimit="10" stroke-linejoin="miter" fill="none" stroke="#000000" d="M0 0H390.752"/>
<path transform="matrix(1.425617,0,0,-1.425617,2.777441,194.2709)" stroke-width=".498" stroke-linecap="butt" stroke-miterlimit="10" stroke-linejoin="miter" fill="none" stroke="#000000" d="M0 0H390.752"/>
<text xml:space="preserve" transform="matrix(1.425617 0 -0 1.425617 -154.93006 653.6931)" font-size="8.9664" font-family="NimbusRomNo9L"><tspan y="-297.181" x="112.157 120.12813 124.61133 129.09453 133.0756">Model</tspan></text>
<text xml:space="preserve" transform="matrix(1.425617 0 -0 1.425617 -154.93006 653.6931)" font-size="8.9664" font-family="NimbusRomNo9L"><tspan y="-307.144" x="148.605 155.07874 160.13579 166.11638 170.59958 177.57544 184.5513 188.53238 193.01558 199.74039 205.72098">G=CommandR+</tspan></text>
<text xml:space="preserve" transform="matrix(1.425617 0 -0 1.425617 -154.93006 653.6931)" font-size="8.9664" font-family="NimbusRomNo9L"><tspan y="-312.125" x="213.844 216.8298 257.5552 262.0384 266.5216 268.7632">IT51.7</tspan></text>
<text xml:space="preserve" transform="matrix(1.425617 0 -0 1.425617 -154.93006 653.6931)" font-size="8.9664" font-family="NimbusRomNo9L" font-weight="bold"><tspan y="-312.125" x="283.79 288.2732 292.7564 294.99803">54.1</tspan></text>
<text xml:space="preserve" transform="matrix(1.425617 0 -0 1.425617 -154.93006 653.6931)" font-size="8.9664" font-family="NimbusRomNo9L"><tspan y="-312.125" x="310.272 314.7552 319.2384 321.48">21.6</tspan></text>
<text xml:space="preserve" transform="matrix(1.425617 0 -0 1.425617 -154.93006 653.6931)" font-size="8.9664" font-family="NimbusRomNo9L" font-weight="bold"><tspan y="-312.125" x="340.735 345.2182 349.70143 351.94303">52.5</tspan></text>
<text xml:space="preserve" transform="matrix(1.425617 0 -0 1.425617 -154.93006 653.6931)" font-size="8.9664" font-family="NimbusRomNo9L"><tspan y="-312.125" x="376.314 380.79719 383.0388 404.91679 409.39997 413.88319 416.1248 441.35624 445.83943 450.32264 452.56425 477.30253 481.7857 486.26893 488.51054">6.926.614.940.8</tspan></text>
<text xml:space="preserve" transform="matrix(1.425617 0 -0 1.425617 -154.93006 653.6931)" font-size="8.9664" font-family="NimbusRomNo9L"><tspan y="-302.163" x="213.844 218.82932 221.81513">SIT</tspan></text>
<text xml:space="preserve" transform="matrix(1.425617 0 -0 1.425617 -154.93006 653.6931)" font-size="8.9664" font-family="NimbusRomNo9L" font-weight="bold"><tspan y="-302.163" x="257.559 262.04219 266.5254 268.767">54.4</tspan></text>
<text xml:space="preserve" transform="matrix(1.425617 0 -0 1.425617 -154.93006 653.6931)" font-size="8.9664" font-family="NimbusRomNo9L"><tspan y="-302.163" x="283.79 288.2732 292.7564 294.99803">53.2</tspan></text>
<text xml:space="preserve" transform="matrix(1.425617 0 -0 1.425617 -154.93006 653.6931)" font-size="8.9664" font-family="NimbusRomNo9L" font-weight="bold"><tspan y="-302.163" x="310.272 314.7552 319.2384 321.48">23.7</tspan></text>
<text xml:space="preserve" transform="matrix(1.425617 0 -0 1.425617 -154.93006 653.6931)" font-size="8.9664" font-family="NimbusRomNo9L"><tspan y="-302.163" x="340.735 345.2182 349.70143 351.94303">47.1</tspan></text>
<text xml:space="preserve" transform="matrix(1.425617 0 -0 1.425617 -154.93006 653.6931)" font-size="8.9664" font-family="NimbusRomNo9L" font-weight="bold"><tspan y="-302.163" x="376.314 380.79719 383.0388 404.91679 409.39997 413.88319 416.1248 441.35624 445.83943 450.32264 452.56425 477.30253 481.7857 486.26893 488.51054">8.533.420.045.0</tspan></text>
<path transform="matrix(1.425617,0,0,-1.425617,54.738328,229.9555)" stroke-width=".299" stroke-linecap="butt" stroke-miterlimit="10" stroke-linejoin="miter" fill="none" stroke="#000000" d="M0 0H354.304"/>
<text xml:space="preserve" transform="matrix(1.425617 0 -0 1.425617 -154.93006 653.6931)" font-size="8.9664" font-family="NimbusRomNo9L"><tspan y="-282.213" x="148.605 154.58559 159.64264 167.61377 170.10643 173.59436 176.08702 179.07283 183.05391 185.54657 188.53238 193.01558">B=Mistral-7B</tspan></text>
<text xml:space="preserve" transform="matrix(1.425617 0 -0 1.425617 -154.93006 653.6931)" font-size="8.9664" font-family="NimbusRomNo9L"><tspan y="-287.194" x="213.844 216.8298 257.5552 262.0384 266.5216 268.7632">IT47.9</tspan></text>
<text xml:space="preserve" transform="matrix(1.425617 0 -0 1.425617 -154.93006 653.6931)" font-size="8.9664" font-family="NimbusRomNo9L" font-weight="bold"><tspan y="-287.194" x="283.79 288.2732 292.7564 294.99803">54.1</tspan></text>
<text xml:space="preserve" transform="matrix(1.425617 0 -0 1.425617 -154.93006 653.6931)" font-size="8.9664" font-family="NimbusRomNo9L"><tspan y="-287.194" x="310.272 314.7552 319.2384 321.48">13.9</tspan></text>
<text xml:space="preserve" transform="matrix(1.425617 0 -0 1.425617 -154.93006 653.6931)" font-size="8.9664" font-family="NimbusRomNo9L" font-weight="bold"><tspan y="-287.194" x="340.735 345.2182 349.70143 351.94303">42.8</tspan></text>
<text xml:space="preserve" transform="matrix(1.425617 0 -0 1.425617 -154.93006 653.6931)" font-size="8.9664" font-family="NimbusRomNo9L"><tspan y="-287.194" x="376.314 380.79719 383.0388 404.91679 409.39997 413.88319 416.1248 445.83943 450.32264 452.56425 477.30253 481.7857 486.26893 488.51054">5.831.74.537.6</tspan></text>
<text xml:space="preserve" transform="matrix(1.425617 0 -0 1.425617 -154.93006 653.6931)" font-size="8.9664" font-family="NimbusRomNo9L"><tspan y="-277.231" x="213.844 218.82932 221.81513">SIT</tspan></text>
<text xml:space="preserve" transform="matrix(1.425617 0 -0 1.425617 -154.93006 653.6931)" font-size="8.9664" font-family="NimbusRomNo9L" font-weight="bold"><tspan y="-277.231" x="257.559 262.04219 266.5254 268.767">52.9</tspan></text>
<text xml:space="preserve" transform="matrix(1.425617 0 -0 1.425617 -154.93006 653.6931)" font-size="8.9664" font-family="NimbusRomNo9L"><tspan y="-277.231" x="283.79 288.2732 292.7564 294.99803">53.0</tspan></text>
<text xml:space="preserve" transform="matrix(1.425617 0 -0 1.425617 -154.93006 653.6931)" font-size="8.9664" font-family="NimbusRomNo9L" font-weight="bold"><tspan y="-277.231" x="310.272 314.7552 319.2384 321.48">20.9</tspan></text>
<text xml:space="preserve" transform="matrix(1.425617 0 -0 1.425617 -154.93006 653.6931)" font-size="8.9664" font-family="NimbusRomNo9L"><tspan y="-277.231" x="340.735 345.2182 349.70143 351.94303">32.6</tspan></text>
<text xml:space="preserve" transform="matrix(1.425617 0 -0 1.425617 -154.93006 653.6931)" font-size="8.9664" font-family="NimbusRomNo9L" font-weight="bold"><tspan y="-277.231" x="376.314 380.79719 383.0388 404.91679 409.39997 413.88319 416.1248 441.35624 445.83943 450.32264 452.56425 477.30253 481.7857 486.26893 488.51054">7.233.210.546.6</tspan></text>
<path transform="matrix(1.425617,0,0,-1.425617,2.777441,265.8526)" stroke-width=".797" stroke-linecap="butt" stroke-miterlimit="10" stroke-linejoin="miter" fill="none" stroke="#000000" d="M0 0H390.752"/>
<text xml:space="preserve" transform="matrix(1.4398024 0 -0 1.4115713 -154.93006 653.6931)" font-size="10.061731" font-family="NimbusRomNo9L"><tspan y="-262.11546" x="106.62999 111.9929 116.46031 121.49117 124.28834 131.23093 136.2618 142.15798 149.42253 154.4534 157.25057 161.71796 164.51512 167.31229 172.34317 179.85929 184.17575 189.20662 194.23749 198.7049 202.05545 204.85262 212.68064 217.14804 222.17891 224.97608 231.37534 235.84275 240.8736 248.38973 251.74028 256.20768 260.11167 265.14253 267.93968 270.73683 274.65086">Table5:Ablationexperimentsandresults.</tspan></text>
<text xml:space="preserve" transform="matrix(1.4398024 0 -0 1.4115713 -154.93006 653.6931)" font-size="10.061731" font-family="NimbusRomNo9L"><tspan y="-262.11546" x="280.52864">T</tspan></text>
<text xml:space="preserve" transform="matrix(1.4398024 0 -0 1.411571 -154.93006 653.6931)" font-size="8.049407" font-family="NimbusRomNo9L"><tspan y="-262.1155" x="287.02107 293.33183">OP</tspan></text>
<text xml:space="preserve" transform="matrix(1.4398024 0 -0 1.4115713 -154.93006 653.6931)" font-size="10.061731" font-family="NimbusRomNo9L"><tspan y="-262.11546" x="298.05424 303.94035 308.40776 313.43864 318.4695 321.26667 324.61723 329.6481 332.44526 335.2424 339.7098 347.22596 350.0231 354.4905 359.5214 364.55226 367.3494 372.38029 378.77955 383.24699 388.27784 395.79399 398.59114 403.05854 406.97257 412.00346 415.91746">:controlledlengthsandtasks;</tspan></text>
<text xml:space="preserve" transform="matrix(1.4398024 0 -0 1.4115713 -154.93006 653.6931)" font-size="10.061731" font-family="NimbusRomNo9L"><tspan y="-262.11546" x="421.4514">B</tspan></text>
<text xml:space="preserve" transform="matrix(1.4398024 0 -0 1.411571 -154.93006 653.6931)" font-size="8.049407" font-family="NimbusRomNo9L"><tspan y="-262.1155" x="428.66566 434.6544 440.07167 445.34403 451.65476">OTTOM</tspan></text>
<text xml:space="preserve" transform="matrix(1.4398024 0 -0 1.4115713 -154.93006 653.6931)" font-size="10.061731" font-family="NimbusRomNo9L"><tspan y="-262.11546" x="459.06513 464.95124 468.3018 472.76924 477.80009 480.59724 485.06468 489.53208 493.99949">:replaced</tspan></text>
<text xml:space="preserve" transform="matrix(1.4398024 0 -0 1.4115713 -154.93006 653.6931)" font-size="10.061731" font-family="NimbusRomNo9L"><tspan y="-251.0979" x="106.93594 111.96681 116.43423 121.46509 125.9325 129.28305 133.75046 136.54763 141.57848 147.40422 150.75479 158.01935 163.85517 168.32256 173.35344 180.8595 185.89037 190.35778 194.27179 201.22444 204.575 211.28618 217.11191 224.93994 229.9708 235.00167 239.46907 242.26624 246.18025 251.79471 259.0593 261.85646 267.13883 270.4894 274.95683 278.87086 283.90174 286.69889 289.49604 295.88523 300.35267 303.70323 310.65589 315.68678 320.15419 324.0682 328.53565 336.0417 341.07258 348.58869 354.73643 357.53358 362.00099 369.829 376.7716 384.28773 389.88206 394.91294 399.38035 402.73094 405.52809 410.55897 415.5898 420.05726 427.5633 432.59419 440.1103 447.37489 450.17204 455.20289 459.67033 464.13774 468.60514 471.95573 475.30628 481.454 484.25117 489.8455 493.19606">generator(G)andbase(B)models.AllresultsarebasedonLlama3&#xfb01;ne-tunedonAlpaca-IT/SIT</tspan></text>
<text xml:space="preserve" transform="matrix(1.425617 0 -0 1.425617 -154.93006 653.6931)" font-size="9.9626" font-family="NimbusRomNo9L"><tspan y="-237.714" x="108 115.7509 120.17429 124.59769 128.47315 133.45444 136.77199 141.19539 148.66733 153.64862 161.12056 163.89017 168.87146 175.7855 179.66097 184.08437 191.83527 198.74932 206.50022 210.92362 213.69322 217.01078 219.78038 224.20378 230.56989 234.99329 241.35939 246.64952 251.07292 256.05424 258.82383">measuredbythesamemetricsasTable</tspan></text>
<text fill="#4ca6a6" xml:space="preserve" transform="matrix(1.425617 0 -0 1.425617 -154.93006 653.6931)" font-size="9.9626" font-family="NimbusRomNo9L"><tspan y="-237.714" x="265.7378">4</tspan></text>
<text xml:space="preserve" transform="matrix(1.425617 0 -0 1.425617 -154.93006 653.6931)" font-size="9.9626" font-family="NimbusRomNo9L"><tspan y="-237.714" x="270.7191">.</tspan></text>
<text xml:space="preserve" transform="matrix(1.425617 0 -0 1.425617 -154.93006 653.6931)" font-size="9.9626" font-family="NimbusRomNo9L" font-weight="bold"><tspan y="-207.717" x="108 112.9813 115.47195 130.41585 138.16675 142.59015 148.12935 152.55275 156.97615 161.95745 164.72705 167.49666 171.37212 176.35341 179.67096 182.44057 187.42186 195.4517 198.76926 206.2412 213.71314 219.98957 224.97086 229.39426 232.16387 237.14516 242.68436 245.45397 252.36801 259.561 265.10023 273.39909 278.9383 283.3617 290.27577 295.25706 301.06526 306.60447 312.14369 317.6829 321.00044 326.7289 331.7102 335.58567 341.12489">4.2GeneralisationtoaVariableNumberofSub-Tasks</tspan></text>
<text xml:space="preserve" transform="matrix(1.4191872 0 -0 1.4320759 -154.93006 653.6931)" font-size="9.917667" font-family="NimbusRomNo9L"><tspan y="-185.72856" x="108.48931 114.00354 118.96237 122.26496 125.02207 129.9809 134.38436 137.29024 142.27881 149.43938 156.35199 159.1091 163.67122 168.47136 172.87482 176.73279 179.4899 182.24701 187.15625 191.55971 194.31682 201.22943 203.98654 208.94538 215.85799 223.57395 228.53276 233.4916 237.89505 240.65216 244.51013 250.32189 255.28072 259.68415 264.64299 268.84806 273.8069 276.56404 281.52287 286.4817 292.29344 299.454 304.41285 308.81626 316.28428 319.0414 324.0002 330.91285 335.87168 340.8305 348.54646 353.50529 357.90873 363.7205 368.67933 374.50099 377.2581 382.21693 384.97407 389.3775 392.68009 400.3861 404.78953 409.74836 412.5055 416.90895 419.66606 426.58857 429.3457 433.7491 437.59718 442.556 448.93305 451.6902 459.1582 466.0708 469.92878 474.3322 479.29106 484.24989 488.65333 493.61216 496.36927 499.1264 503.52983">Further,weinvestigatethemodels&#x2019;behaviourwhenthenumberofintermediatetasksinasequential</tspan></text>
<text xml:space="preserve" transform="matrix(1.4398024 0 -0 1.4115713 -154.93006 653.6931)" font-size="10.061731" font-family="NimbusRomNo9L"><tspan y="-177.40889" x="106.93594 109.73311 114.76398 118.677989 121.47515 124.82571 129.85657 134.32398 137.12114 139.9183 144.94918 152.96839 157.99925 161.34981 166.13919 173.40377 180.3061 184.77352 190.559 193.35617 198.38703 201.73758 206.20499 209.55554 214.02295 219.05382 223.52123 230.97696 233.77413 236.57129 244.3993 248.86672 256.0206 261.37345 269.4027 272.19987 277.23075 280.0279 286.93025 291.39768 296.42854 301.4594 307.094 314.35856 321.8143 326.04023 330.81956 335.28697 338.0841 343.115 347.5824 350.37956 357.84538 360.64253 365.6734 373.12916 377.04316 381.5106 389.33863 396.79438 404.62239 409.65327 414.6841 419.15156 421.9487 428.85105 433.31849 440.2309 445.82524 450.29264 454.76008 457.55723 460.35438 465.38523">instructiongrowsatinferencetime.Tothisend,weevaluatethesamemodelsasSection</tspan></text>
<text fill="#4ca6a6" xml:space="preserve" transform="matrix(1.4398024 0 -0 1.4115713 -154.93006 653.6931)" font-size="10.061731" font-family="NimbusRomNo9L"><tspan y="-177.40889" x="473.40443 478.4353 480.95075">3.2</tspan></text>
<text xml:space="preserve" transform="matrix(1.4398024 0 -0 1.4115713 -154.93006 653.6931)" font-size="10.061731" font-family="NimbusRomNo9L"><tspan y="-177.40889" x="488.96995 494.00083">on</tspan></text>
<text xml:space="preserve" transform="matrix(1.4398024 0 -0 1.4115713 -154.93006 653.6931)" font-size="10.061731" font-family="NimbusRomNo9L"><tspan y="-166.39134" x="106.93594 109.73311 114.76398 117.56114 122.02855 125.379108 133.20714 137.67453 142.7054 145.50257 149.96996 152.76712 159.7902 164.67015 169.13756 172.48812 176.40213 179.1993 184.23017 189.26103 195.73073 200.7616">intermediateversionsof</tspan></text>
<text xml:space="preserve" transform="matrix(1.4398024 0 -0 1.4115713 -154.93006 653.6931)" font-size="10.061731" font-family="NimbusRomNo9L" font-style="italic"><tspan y="-166.39134" x="206.6656 211.69646 216.16387 221.19472 227.34244 231.80985 236.8407">SeqEval</tspan></text>
<text xml:space="preserve" transform="matrix(1.4398024 0 -0 1.4115713 -154.93006 653.6931)" font-size="10.061731" font-family="NimbusRomNo9L"><tspan y="-166.39134" x="242.201 246.6684 252.02126 257.05213 259.84928 262.9483 266.29887 270.7663 274.11686 278.58427 283.61515 288.968 291.76515 294.5623 299.0297 302.38029 306.8477 309.64485 312.442 317.47288 322.50373 326.41777 332.25358 339.51817 344.549 347.34617 354.36927 357.1664 362.1973 366.6647 372.00749 374.80464 379.8355 384.30293 388.21696 395.24006 398.0372 405.86524 410.89613 413.69328 421.27983 426.3107 429.10786 432.20686 435.55744 440.02485 443.37544 447.84284 452.87373 458.22654 466.05458 470.52198 475.55287 478.35 486.17805 491.2089">atdifferentiterations.Notethattheseimplydifferentmaximum</tspan></text>
<text xml:space="preserve" transform="matrix(1.4298878 0 -0 1.421359 -154.93006 653.6931)" font-size="9.992445" font-family="NimbusRomNo9L"><tspan y="-154.30388" x="107.67743 112.67365 117.669879 125.444 130.44022 134.87686 138.20435 144.55954 149.55576 155.35137 159.23844 164.23465 169.23087 172.55835 175.33625 179.77289 183.65996 188.65618 192.54325 198.39884 202.83548 209.19068 213.47743 218.47365 223.46987 226.24777 230.68442 233.46233 238.45854 242.89519 250.36952 253.14743 260.6118 266.1676 270.60426 275.04093 277.81883 280.5967 285.59297">numbersofsub-tasks:asexplainedinSection</tspan></text>
<text fill="#4ca6a6" xml:space="preserve" transform="matrix(1.4298878 0 -0 1.421359 -154.93006 653.6931)" font-size="9.992445" font-family="NimbusRomNo9L"><tspan y="-154.30388" x="293.05717 298.0534 300.5515">2.4</tspan></text>
<text xml:space="preserve" transform="matrix(1.4298878 0 -0 1.421359 -154.93006 653.6931)" font-size="9.992445" font-family="NimbusRomNo9L"><tspan y="-154.30388" x="305.54777 310.52403 313.8515 318.84776 324.64338 329.08003 333.5167 337.95335 345.4177 348.19563 350.9735 355.41017 358.73768 363.17433 365.95225 368.73014 373.72636 378.7226 383.6888 387.88566 392.73204 397.16868 400.4962 407.96055 410.73844 415.73469 419.62174 422.39964 425.72715 430.72337 435.16004 437.93794 440.71583 445.71208 453.17643 455.95436 462.30955 467.30577 472.302 475.0799 477.8578 482.85404 487.85029 492.28694 495.06483 497.84275">,foreachiteration,everyinstructionisoptionally</tspan></text>
<text xml:space="preserve" transform="matrix(1.4398024 0 -0 1.4115713 -154.93006 653.6931)" font-size="10.061731" font-family="NimbusRomNo9L"><tspan y="-144.35626" x="106.93594 111.25243 116.283298 119.08046 123.547878 128.57875 133.60962 138.07703 145.76418 153.02875 155.82592 158.613 166.30016 171.33103 176.3619 183.47553 191.30355 196.33443 199.68498 206.79862 209.59578 214.06319 217.97719 223.00807 229.1256 237.83907 244.9527 248.30326 252.77066 257.80155 262.8324 266.18299 271.62638 274.42353 279.4544 286.57814 291.609 296.63987 301.1073 303.90446 306.7016 309.49876 317.17585 321.08988 325.5573 330.58818 333.93876 338.40617 344.96644 348.31703 351.11418 355.58158 358.93217 361.7293 367.7261 372.19355 377.2244 384.9116 387.70875 392.73963 399.85328 403.20387 408.2347 411.03187 413.829 418.60835 425.8729 428.67005 433.70094 441.37806 444.7286 449.19606 451.9932 459.1169 462.4675 465.81806 468.6152 473.6461 478.67695 481.4741 487.47093 490.8215 495.85237">extendedwithonemoretask.Wereportthequalityscores(left)andthefollowingrate(right)for</tspan></text>
<text xml:space="preserve" transform="matrix(1.425617 0 -0 1.425617 -154.93006 653.6931)" font-size="9.9626" font-family="NimbusRomNo9L"><tspan y="-132.025" x="108 112.9813 115.7509 118.81938 122.136928 126.56032 129.87787 134.30127 139.28256 144.54282 147.31243 150.08203 154.50543 157.82299 162.24639 165.01599 167.7856 172.76689 177.74819 184.11429 186.8839 194.35584 199.89504 202.66464 207.64594 212.62723 215.94478">differentiterationsinFigure</tspan></text>
<text fill="#4ca6a6" xml:space="preserve" transform="matrix(1.425617 0 -0 1.425617 -154.93006 653.6931)" font-size="9.9626" font-family="NimbusRomNo9L"><tspan y="-132.025" x="222.8588">3</tspan></text>
<text xml:space="preserve" transform="matrix(1.425617 0 -0 1.425617 -154.93006 653.6931)" font-size="9.9626" font-family="NimbusRomNo9L"><tspan y="-132.025" x="227.8401">.</tspan></text>
<text xml:space="preserve" transform="matrix(1.4398024 0 -0 1.4115713 -154.93006 653.6931)" font-size="10.061731" font-family="NimbusRomNo9L"><tspan y="-116.78663" x="106.93594 110.2865 117.80262 122.27003 126.73744 131.20485 138.72097 141.51813 144.30522 148.77263 152.12319 156.59059 159.38776 162.18492 167.21578 174.7319 179.76277 185.59859 188.39575 193.42662 200.37928 204.84668 208.19724 212.66464 217.13204 219.9292 222.72637 227.75724 235.26329 240.29416">Ineachiterationofthecreationof</tspan></text>
<text xml:space="preserve" transform="matrix(1.4398024 0 -0 1.4115713 -154.93006 653.6931)" font-size="10.061731" font-family="NimbusRomNo9L" font-style="italic"><tspan y="-116.78663" x="246.13289 251.16376 255.63118 260.66206 266.80979 271.2772 276.30809">SeqEval</tspan></text>
<text xml:space="preserve" transform="matrix(1.4398024 0 -0 1.4115713 -154.93006 653.6931)" font-size="10.061731" font-family="NimbusRomNo9L"><tspan y="-116.78663" x="279.1048 284.10548 289.6998 293.05039 301.68336 309.51139 313.9788 316.77595 321.80683 326.83769 331.86857 338.26783 342.73527 347.7661 352.797 356.71104 359.50819 363.4222 366.21937 370.68678 375.71766 378.5148 381.31196 388.818 393.84889 398.31629 401.66688 405.01744 410.0483 413.3989 423.71217 428.74305 433.21046 436.0076 438.80476 443.27217 449.10798 451.90513 456.936 461.4034 468.91957 471.7167 476.74757 481.215 484.01216 489.8379 493.18849">,SITmethodsconsistentlyperformbetterthantheirIT</tspan></text>
<text xml:space="preserve" transform="matrix(1.4120087 0 -0 1.4393565 -154.93006 653.6931)" font-size="9.867501" font-family="NimbusRomNo9L"><tspan y="-103.72732" x="109.04086 113.42203 118.35578 123.289539 128.22328 130.96646 135.34764 138.63352 143.56728 147.94846 151.23433 153.9775 160.33217 164.71334 169.6471 174.58084 178.96202 183.3432 186.62908 191.56284 194.306 199.23975 206.68972 211.62346 216.55722 219.30039 226.75035 230.03623 234.4174 238.25586 243.18962 248.12337 253.05713 256.89558 263.80284 268.73658 273.67033 278.0515 280.79469 283.53785 286.281 293.73097 298.11216 303.0459 310.49586 313.78175 318.71549 321.45866 324.2018 328.879 336.00337 338.74653 343.68028 351.13023 354.4161 358.79728 361.54045 365.92164 369.76008 375.35496 382.4793 388.84385 391.587 396.52076 403.41813 406.1613 408.90446 413.28565 416.5715 420.9527 423.69587 426.43904 431.37278 438.82273 443.7565 448.69026 456.36717 461.3009 465.6821 471.4842 474.22737 479.1611 483.54228 486.82817 491.20933 495.5905 499.42897 503.81016 507.6486">counterpartsconcerningbothresponsequalityandfollowingrates.Astheiterationnumberincreases,</tspan></text>
<text xml:space="preserve" transform="matrix(1.4263297 0 -0 1.4249047 -154.93006 653.6931)" font-size="9.96758" font-family="NimbusRomNo9L"><tspan y="-93.8649" x="107.94603 110.71701 115.700809 122.60834 127.59213 132.01773 135.33693 138.65615 143.63993 146.95914 154.71392 159.13953 164.1233 168.5489 175.45645 180.3904 184.81601 192.28174 199.47834 202.24932 207.23311 211.6587 216.64249 220.51988 230.48748 233.25846 238.24225 243.22603 245.99703 250.42263 254.84824 257.6192 260.3902 265.37397 272.83967 275.61067 280.59443 287.50196 291.37934 296.36314 301.3469 305.7725 309.0917 311.8627 316.84648 322.63764 327.06327 332.04704 334.81803 337.589 340.36 343.13096 350.59666 355.5804 361.38154 365.80717 370.08326 375.06703 377.838 381.1572 385.58283 390.5666 395.55039 398.32136 402.74699 405.51795 408.28895 413.2727 418.2565 425.164 427.935 435.4007 443.1555 448.13926 451.45848 458.366 461.13697 465.5626 469.43998 474.42375 480.78306 485.76686 491.56797 494.33894 499.32273">theperformancegapwidens&#x2014;indicatingthesuperiorabilityof&#x201c;extrapolation&#x201d;tomoretasksofthe</tspan></text>
<text xml:space="preserve" transform="matrix(1.4398024 0 -0 1.4115713 -154.93006 653.6931)" font-size="10.061731" font-family="NimbusRomNo9L" font-style="italic"><tspan y="-83.73397" x="106.6894 111.72027 116.187679 121.218547 124.5691 127.919658 132.95053 136.86454 139.6617 143.57572 148.60657 153.07398">Seq-Instruct</tspan></text>
<text xml:space="preserve" transform="matrix(1.4398024 0 -0 1.4115713 -154.93006 653.6931)" font-size="10.061731" font-family="NimbusRomNo9L"><tspan y="-83.73397" x="158.94445 163.97531 167.32587 172.35674 176.82413 181.29154 186.32242 191.35329 194.70384 199.17125 206.03336 214.74683 222.11202 226.57942 229.37659 233.29059 241.21923 245.68663 249.60063 252.3978 256.85514 261.88603 264.68318 267.48033 271.39436 279.323 283.7904 288.8213 293.85215 296.6493 299.44645 302.2436 307.27449 312.30537 316.77278 322.46769 327.49858 331.96598 335.88 340.3474 343.14457 345.9417 350.9726 355.44 359.35404 366.0753 371.66963 375.02018 378.9342 381.73136 387.24519 394.50975 401.87495 407.46928 412.50016 420.42878 423.22593 428.2568 432.7242 438.41917 447.51496 450.3121 454.7795 459.24696 462.5975 467.6284 473.7761 485.61875 490.64964 495.11705">procedure.Wealsoestablishadditionalbaselines:&#xfb01;rst,we&#xfb01;ndthatWizardLMhas</tspan></text>
<text xml:space="preserve" transform="matrix(1.431308 0 -0 1.4199485 -154.93006 653.6931)" font-size="10.002371" font-family="NimbusRomNo9L"><tspan y="-72.28743" x="107.57059 110.35125 115.35243 122.27408 125.05474 129.80588 137.02759 141.46865 145.35956 150.6208 155.622 160.06305 163.39385 166.72463 171.72582 175.05661 182.83846 187.27951 192.2807 196.72176 203.6534 208.09445 212.53553 215.8663 220.8675 224.7584 231.12992 235.57097 238.35164 243.61289 246.39356 249.17421 253.61528 256.94609 261.38713 264.16777 266.9484 271.9496 276.95079 280.8417 285.82289 293.04463 298.04579 300.82646 305.2675 312.74925 317.75044 320.53108 325.53227 330.53346 333.3141 336.09474 341.09593 346.0971 348.87776 355.24928 358.0299 363.0311 367.47215 372.73338 378.29469 381.6255 390.2175 392.99815 399.37965 402.1503 407.1515 414.0831 421.86494 426.86613 430.75706 436.01829 440.45933 445.4605 453.24235 458.2435 462.68458 465.4652 468.24586 471.0265 473.55708 478.40824 485.32984 490.33103 494.77207 497.55274">thelowestperformanceacrossalliterations,whichhighlightsthatSITisthemostcompetitivedata</tspan></text>
<text xml:space="preserve" transform="matrix(1.425617 0 -0 1.425617 -154.93006 653.6931)" font-size="9.9626" font-family="NimbusRomNo9L"><tspan y="-42.112" x="303.509">8</tspan></text>
</g>
</g>
</svg>
