<svg xmlns="http://www.w3.org/2000/svg" xmlns:xlink="http://www.w3.org/1999/xlink" version="1.1" width="555.1186" height="199.33377" viewBox="0 0 555.1186 199.33377">
<defs>
<clipPath id="clip_0">
<path transform="matrix(1,0,0,-1,-24.47228,516.1091)" d="M24.47228 316.7753H579.5909V516.1091H24.47228Z" fill-rule="evenodd"/>
</clipPath>
<clipPath id="clip_1">
<path transform="matrix(1,0,0,-1,-24.47228,516.1091)" d="M11.3386 323.2182H583.937V518.67166H11.3386Z"/>
</clipPath>
</defs>
<g clip-path="url(#clip_0)">
<g clip-path="url(#clip_1)">
<path transform="matrix(1.428789,0,0,-1.428789,5.9946596,9.602875)" stroke-width=".797" stroke-linecap="butt" stroke-miterlimit="10" stroke-linejoin="miter" fill="none" stroke="#000000" d="M0 0H378.979"/>
<text xml:space="preserve" transform="matrix(1.428789 0 -0 1.428789 -160.47348 1037.7608)" font-size="8.9664" font-family="NimbusRomNo9L" font-weight="bold"><tspan y="-689.39" x="122.047 128.52074 133.00394 135.98975 140.47295 143.96088 147.94196 165.29193 173.75621 177.73729 180.7231 185.70842 190.19162">DatasetMethod</tspan></text>
<text xml:space="preserve" transform="matrix(1.428789 0 -0 1.428789 -160.47348 1037.7608)" font-size="8.9664" font-family="NimbusRomNo9L" font-weight="bold"><tspan y="-709.315" x="264.213 271.18888 275.16996 280.15528 284.13636 288.11744 290.61009 296.83277 301.98844 306.47163 309.95954 404.95857 409.94389 413.92497 418.91029 423.8956 427.87669 432.862 435.8478 438.34046 442.82368 447.55793 452.7136 457.19679 460.6847">GenericTaskSequentialTask</tspan></text>
<path transform="matrix(1.428789,0,0,-1.428789,138.13472,31.344758)" stroke-width=".299" stroke-linecap="butt" stroke-miterlimit="10" stroke-linejoin="miter" fill="none" stroke="#000000" d="M0 0H161.169"/>
<path transform="matrix(1.428789,0,0,-1.428789,382.6448,31.344758)" stroke-width=".299" stroke-linecap="butt" stroke-miterlimit="10" stroke-linejoin="miter" fill="none" stroke="#000000" d="M0 0H110.383"/>
<text xml:space="preserve" transform="matrix(1.428789 0 -0 1.428789 -160.47348 1037.7608)" font-size="8.9664" font-family="NimbusRomNo9L"><tspan y="-689.116" x="208.047 216.01813 223.98926 229.46773 244.01123 250.48497 256.46556 270.5159 276.98966 281.97499 289.9461 294.42933">MMLUARCGSM8k</tspan></text>
<text xml:space="preserve" transform="matrix(1.428789 0 -0 1.428789 -160.47348 1037.7608)" font-size="8.9664" font-family="NimbusRomNo9L"><tspan y="-694.346" x="306.982 313.45576 317.93898 324.91484 328.8959">Human</tspan></text>
<text xml:space="preserve" transform="matrix(1.428789 0 -0 1.428789 -160.47348 1037.7608)" font-size="8.9664" font-family="NimbusRomNo9L"><tspan y="-684.384" x="312.075 317.5535 321.81254 325.7936">Eval</tspan></text>
<text xml:space="preserve" transform="matrix(1.428789 0 -0 1.428789 -160.47348 1037.7608)" font-size="8.9664" font-family="NimbusRomNo9L"><tspan y="-694.346" x="343.582 350.05577 352.5484 357.03163 361.0127 364.99378">Alpaca</tspan></text>
<text xml:space="preserve" transform="matrix(1.428789 0 -0 1.428789 -160.47348 1037.7608)" font-size="8.9664" font-family="NimbusRomNo9L"><tspan y="-684.384" x="341.448 346.92649 351.18553 355.1666 359.90086 364.38404 366.62565">Eval2.0</tspan></text>
<text xml:space="preserve" transform="matrix(1.428789 0 -0 1.428789 -160.47348 1037.7608)" font-size="8.9664" font-family="NimbusRomNo9L"><tspan y="-689.116" x="379.179 385.65275 392.1265 396.60969 403.08345 417.62696 425.59809 432.07185 437.05717 445.0283 449.51148">XQuADMGSM8k</tspan></text>
<text xml:space="preserve" transform="matrix(1.428789 0 -0 1.428789 -160.47348 1037.7608)" font-size="8.9664" font-family="NimbusRomNo9L" font-style="italic"><tspan y="-689.116" x="462.063 466.5462 470.52729 475.0105 480.48899 484.47007 488.95326">SeqEval</tspan></text>
<path transform="matrix(1.428789,0,0,-1.428789,5.9946596,67.108768)" stroke-width=".498" stroke-linecap="butt" stroke-miterlimit="10" stroke-linejoin="miter" fill="none" stroke="#000000" d="M0 0H378.979"/>
<text xml:space="preserve" transform="matrix(1.428789 0 -0 1.428789 -160.47348 1037.7608)" font-size="8.9664" font-family="NimbusRomNo9L"><tspan y="-659.253" x="120.545 127.01874 129.5114 133.9946 137.97568 141.95676">Alpaca</tspan></text>
<text xml:space="preserve" transform="matrix(1.428789 0 -0 1.428789 -160.47348 1037.7608)" font-size="8.9664" font-family="NimbusRomNo9L"><tspan y="-669.216" x="160.499 163.4848 214.14496 218.62816 223.11136 225.35297 245.38391 249.86711 254.35031 256.59193 276.86497 281.34815 285.83137 288.07298 312.33604 316.8192 321.30244 323.54405 352.91795 357.40113 359.64274 386.524 391.0072 395.49043 397.73204 427.9667 432.4499 436.9331 439.1747 468.91627 473.39949 477.8827 480.1243">IT56.349.717.753.77.938.515.746.3</tspan></text>
<text xml:space="preserve" transform="matrix(1.428789 0 -0 1.428789 -160.47348 1037.7608)" font-size="8.9664" font-family="NimbusRomNo9L"><tspan y="-659.253" x="160.499 168.60462 171.09728 175.07836 179.05944 182.04524 186.52845 192.00691 214.14496 218.62816 223.11136 225.35297 245.38391 249.86711 254.35031 256.59193 276.86497 281.34815 285.83137 288.07298">WizardLM58.451.832.9</tspan></text>
<text xml:space="preserve" transform="matrix(1.428789 0 -0 1.428789 -160.47348 1037.7608)" font-size="8.9664" font-family="NimbusRomNo9L" font-weight="bold"><tspan y="-659.253" x="312.335 316.81819 321.3014 323.543">63.9</tspan></text>
<text xml:space="preserve" transform="matrix(1.428789 0 -0 1.428789 -160.47348 1037.7608)" font-size="8.9664" font-family="NimbusRomNo9L"><tspan y="-659.253" x="352.916 357.39918 359.64079 386.52204 391.00526 395.48847 397.73008 427.96476 432.44795 436.93116 439.17277 468.9143 473.39753 477.88075 480.12236">8.442.126.937.1</tspan></text>
<text xml:space="preserve" transform="matrix(1.428789 0 -0 1.428789 -160.47348 1037.7608)" font-size="8.9664" font-family="NimbusRomNo9L"><tspan y="-649.29" x="160.499 165.48432 168.47013">SIT</tspan></text>
<text xml:space="preserve" transform="matrix(1.428789 0 -0 1.428789 -160.47348 1037.7608)" font-size="8.9664" font-family="NimbusRomNo9L" font-weight="bold"><tspan y="-649.29" x="214.149 218.6322 223.1154 225.357 245.37897 249.86217 254.34537 256.58699 276.869 281.35218 285.8354 288.077">59.552.834.5</tspan></text>
<text xml:space="preserve" transform="matrix(1.428789 0 -0 1.428789 -160.47348 1037.7608)" font-size="8.9664" font-family="NimbusRomNo9L"><tspan y="-649.29" x="312.335 316.81819 321.3014 323.543">56.5</tspan></text>
<text xml:space="preserve" transform="matrix(1.428789 0 -0 1.428789 -160.47348 1037.7608)" font-size="8.9664" font-family="NimbusRomNo9L" font-weight="bold"><tspan y="-649.29" x="348.433 352.9162 357.3994 359.64103 386.52229 391.0055 395.4887 397.73033 427.965 432.44819 436.9314 439.173 468.91456 473.39778 477.88099 480.1226">15.046.132.950.3</tspan></text>
<path transform="matrix(1.428789,0,0,-1.428789,5.9946596,117.25067)" stroke-width=".498" stroke-linecap="butt" stroke-miterlimit="10" stroke-linejoin="miter" fill="none" stroke="#000000" d="M0 0H378.979"/>
<text xml:space="preserve" transform="matrix(1.428789 0 -0 1.428789 -160.47348 1037.7608)" font-size="8.9664" font-family="NimbusRomNo9L"><tspan y="-629.141" x="120.545 125.53032 128.02298 132.00406 136.48726 142.46785 146.95105">FlanCoT</tspan></text>
<text xml:space="preserve" transform="matrix(1.428789 0 -0 1.428789 -160.47348 1037.7608)" font-size="8.9664" font-family="NimbusRomNo9L"><tspan y="-634.122" x="160.499 163.4848 214.14496 218.62816 223.11136 225.35297 245.38391 249.86711 254.35031 256.59193 276.86497 281.34815 285.83137 288.07298 312.33604 316.8192 321.30244 323.54405 352.91795 357.40113 359.64274 386.524 391.0072 395.49043 397.73204 427.9667 432.4499 436.9331 439.1747 468.91627 473.39949 477.8827 480.1243">IT54.850.046.360.99.546.434.843.5</tspan></text>
<text xml:space="preserve" transform="matrix(1.428789 0 -0 1.428789 -160.47348 1037.7608)" font-size="8.9664" font-family="NimbusRomNo9L"><tspan y="-624.16" x="160.499 165.48432 168.47013">SIT</tspan></text>
<text xml:space="preserve" transform="matrix(1.428789 0 -0 1.428789 -160.47348 1037.7608)" font-size="8.9664" font-family="NimbusRomNo9L" font-weight="bold"><tspan y="-624.16" x="214.149 218.6322 223.1154 225.357 245.37897 249.86217 254.34537 256.58699 276.869 281.35218 285.8354 288.077 312.3311 316.81428 321.2975 323.5391 348.4298 352.91304 357.39625 359.63786 386.5191 391.00233 395.48554 397.72715 427.96183 432.445 436.92823 439.16984 468.91139 473.3946 477.8778 480.11943">58.154.150.565.810.055.841.849.6</tspan></text>
<path transform="matrix(1.428789,0,0,-1.428789,5.9946596,153.15616)" stroke-width=".498" stroke-linecap="butt" stroke-miterlimit="10" stroke-linejoin="miter" fill="none" stroke="#000000" d="M0 0H378.979"/>
<text xml:space="preserve" transform="matrix(1.428789 0 -0 1.428789 -160.47348 1037.7608)" font-size="8.9664" font-family="NimbusRomNo9L"><tspan y="-604.01" x="120.545 125.61998 130.10318 132.59584 137.07904 140.06485 146.53859">Tulu-V2</tspan></text>
<text xml:space="preserve" transform="matrix(1.428789 0 -0 1.428789 -160.47348 1037.7608)" font-size="8.9664" font-family="NimbusRomNo9L"><tspan y="-608.992" x="160.499 163.4848">IT</tspan></text>
<text xml:space="preserve" transform="matrix(1.428789 0 -0 1.428789 -160.47348 1037.7608)" font-size="8.9664" font-family="NimbusRomNo9L" font-weight="bold"><tspan y="-608.992" x="214.149 218.6322 223.1154 225.357">56.2</tspan></text>
<text xml:space="preserve" transform="matrix(1.428789 0 -0 1.428789 -160.47348 1037.7608)" font-size="8.9664" font-family="NimbusRomNo9L"><tspan y="-608.992" x="245.383 249.8662 254.3494 256.591 276.86405 281.34724 285.83045 288.07206 312.3351 316.8183 321.3015 323.54313">51.343.464.6</tspan></text>
<text xml:space="preserve" transform="matrix(1.428789 0 -0 1.428789 -160.47348 1037.7608)" font-size="8.9664" font-family="NimbusRomNo9L" font-weight="bold"><tspan y="-608.992" x="348.433 352.9162 357.3994 359.64103">16.3</tspan></text>
<text xml:space="preserve" transform="matrix(1.428789 0 -0 1.428789 -160.47348 1037.7608)" font-size="8.9664" font-family="NimbusRomNo9L"><tspan y="-608.992" x="386.522 391.0052 395.4884 397.73 427.9647 432.44789 436.9311 439.1727 468.91426 473.39747 477.88069 480.12229">24.935.050.6</tspan></text>
<text xml:space="preserve" transform="matrix(1.428789 0 -0 1.428789 -160.47348 1037.7608)" font-size="8.9664" font-family="NimbusRomNo9L"><tspan y="-599.029" x="160.499 165.48432 168.47013 214.14496 218.62816 223.11136 225.35297">SIT54.4</tspan></text>
<text xml:space="preserve" transform="matrix(1.428789 0 -0 1.428789 -160.47348 1037.7608)" font-size="8.9664" font-family="NimbusRomNo9L" font-weight="bold"><tspan y="-599.029" x="245.383 249.8662 254.3494 256.591 276.86405 281.34724 285.83045 288.07206 312.3351 316.8183 321.3015 323.54313">52.647.267.5</tspan></text>
<text xml:space="preserve" transform="matrix(1.428789 0 -0 1.428789 -160.47348 1037.7608)" font-size="8.9664" font-family="NimbusRomNo9L"><tspan y="-599.029" x="348.433 352.9162 357.3994 359.64103">16.0</tspan></text>
<text xml:space="preserve" transform="matrix(1.428789 0 -0 1.428789 -160.47348 1037.7608)" font-size="8.9664" font-family="NimbusRomNo9L" font-weight="bold"><tspan y="-599.029" x="386.522 391.0052 395.4884 397.73 427.9647 432.44789 436.9311 439.1727 468.91426 473.39747 477.88069 480.12229">35.635.653.0</tspan></text>
<path transform="matrix(1.428789,0,0,-1.428789,5.9946596,189.27738)" stroke-width=".797" stroke-linecap="butt" stroke-miterlimit="10" stroke-linejoin="miter" fill="none" stroke="#000000" d="M0 0H378.979"/>
<text xml:space="preserve" transform="matrix(1.443006 0 -0 1.4147121 -160.47348 1037.7608)" font-size="10.061731" font-family="NimbusRomNo9L"><tspan y="-587.1145" x="106.62999 111.9929 116.46031 121.49117 124.28834 131.32149 136.35234">Table4:</tspan></text>
<text xml:space="preserve" transform="matrix(1.443006 0 -0 1.4147121 -160.47348 1037.7608)" font-size="10.061731" font-family="NimbusRomNo9L" font-style="italic"><tspan y="-587.1145" x="142.42086 147.4517 151.91912 156.94998 160.30054 163.6511 168.68196 172.59598 175.39315 179.30715 184.33802 188.8054">Seq-Instruct</tspan></text>
<text xml:space="preserve" transform="matrix(1.443006 0 -0 1.4147121 -160.47348 1037.7608)" font-size="10.061731" font-family="NimbusRomNo9L"><tspan y="-587.1145" x="194.35211 197.70267 202.17008 206.08409 211.11496 213.91213 216.70929 223.19911 226.54967 231.58054 237.49684 242.52771 245.32488 248.43395 251.77445 256.24186 259.59245 264.05986 269.09074 274.46369 279.49458 283.96199 286.75914 291.22654 295.14057 299.608 302.40516 306.31916 312.20527 321.15016 325.61756 328.4147 331.7653 334.56245 339.02986 342.94389 349.01109 353.47853 357.94593 362.41337 367.4442 370.7948 375.2622 379.5787 387.1854 390.53596 395.56684 401.4932 410.43809 419.38294 425.53068 432.79524 437.87644 445.141 451.85218 458.56333 463.65458 470.91917 476.5135 485.45835 490.48924 497.75379">resultsfordifferentdatasets.Metrics:accuracyforMMLU,ARC,GSM8K,</tspan></text>
<text xml:space="preserve" transform="matrix(1.414429 0 -0 1.4432949 -160.47348 1037.7608)" font-size="9.862471" font-family="NimbusRomNo9L"><tspan y="-564.688" x="108.73383 115.85454 122.97525 127.90649 135.02719 142.14789 147.1087 151.48766 156.41889 163.85518 172.62291 179.7436 185.22714 193.99488 198.9261 206.0468 211.28379 216.61937 220.9983 224.83481 228.67131 237.75466 242.68589 250.11232 253.39652 258.32777 264.117 271.2377 276.16896 283.84196 288.22093 293.15217 299.1781 303.85295 308.23188 310.97364 316.22047 322.2464 328.27238 337.0401 340.3243 344.70326 348.53977 351.82395 356.20289 359.4871 362.22886 367.1601 372.09135 377.02259 383.89674 391.01744 393.7592 401.1955 404.4797 408.85865 411.6004 418.47456 422.8535 427.7354 432.11436 434.8561 439.78736 443.62385 448.8608 455.9815 461.46507 466.57383 469.858 474.78926 477.25486 482.1861 485.4703 491.04258 495.97383 499.25804 504.18928">XQuAD,andMGSM8K;Pass@10forHumanEval;LLM-as-a-judgewinrateagainstGPT-3.5-Turbo</tspan></text>
<text xml:space="preserve" transform="matrix(1.428789 0 -0 1.428789 -160.47348 1037.7608)" font-size="9.9626" font-family="NimbusRomNo9L"><tspan y="-559.512" x="108 111.31754 116.29884">for</tspan></text>
<text xml:space="preserve" transform="matrix(1.428789 0 -0 1.428789 -160.47348 1037.7608)" font-size="9.9626" font-family="NimbusRomNo9L" font-style="italic"><tspan y="-559.512" x="122.107 127.0883 131.5117 136.493 142.58014 147.00354 151.98484">SeqEval</tspan></text>
<text xml:space="preserve" transform="matrix(1.428789 0 -0 1.428789 -160.47348 1037.7608)" font-size="9.9626" font-family="NimbusRomNo9L"><tspan y="-559.512" x="154.754">.</tspan></text>
<text xml:space="preserve" transform="matrix(1.443006 0 -0 1.4147121 -160.47348 1037.7608)" font-size="10.061731" font-family="NimbusRomNo9L"><tspan y="-523.41488" x="106.93594 109.73311 114.76398 119.231388 122.02855 127.93479 130.73197 135.76282 139.67684 142.474 145.82456 150.85541 155.32282 158.11998 160.91715 165.948 170.97887 177.44857 185.2766 190.30745 193.658 200.68109 205.1485 210.17935 218.00739 223.03826 225.83542 230.15189 237.73845 241.089 245.55641 248.35358 253.38443 256.735 261.76588 266.2333 271.26417 274.0613 281.6479 285.8738 290.70344 295.7343 298.53147 303.56233 306.35948 309.15663 314.1875 319.21839 323.6858 329.59205 334.05949 339.09034 346.6769 354.5049 359.5358 362.88636 369.90946 374.94035 377.496 382.37596 386.84336 390.19395 394.10795 401.13108 404.48164 408.94905 411.7462 416.77708 420.12767 425.1585 428.5091 432.9765 437.44395 442.4748 445.27195 452.85853 457.07438 461.91407 466.94496 469.7421 474.77296 477.5701 480.36726 485.39814 490.42903 494.89643 498.24699">theirinstructionsmorecomplex(&#x201c;in-depthevolution&#x201d;)andmorediverse(&#x201c;in-breadthevolution&#x201d;).</tspan></text>
<text xml:space="preserve" transform="matrix(1.4401739 0 -0 1.4174942 -160.47348 1037.7608)" font-size="10.041984" font-family="NimbusRomNo9L"><tspan y="-511.39064" x="107.14624 112.72958 117.75057 122.20921 126.66786 129.45954 135.04288 139.50153 143.96018 146.75185 149.54352 153.92183 158.91269 166.16301 173.11206 176.45604 180.91469 185.93569 190.95668 194.30066 199.57271 208.65067 211.44234 215.90099 220.35964 223.7036 228.7246 234.86025 246.26795 249.61193 254.07056 257.9769 262.9979 265.78956 268.5812 274.97798 279.99897 284.44755 288.35389 292.81254 300.32395 305.34495 312.84629 315.63798 318.42964 324.8163 329.27497 334.29597 339.31697 347.1296 351.58827 356.60926 359.4009 363.85957 366.6512 369.44288 374.46388 381.9652 386.9862 392.81059 400.06089 402.85255 407.87355 412.33219 416.7908 421.24946 431.29145 434.0831 439.35514 442.1468 448.53349 455.69343 460.71443 464.0584 466.85008 474.3514 479.3724 484.3934 487.18507 489.97676 494.99775">Speci&#xfb01;cally,wereportWizardLMresultsbasedonitsaugmentationofAlpaca&#x2014;itisworthnoting</tspan></text>
<text xml:space="preserve" transform="matrix(1.414429 0 -0 1.4432949 -160.47348 1037.7608)" font-size="9.862471" font-family="NimbusRomNo9L"><tspan y="-491.44953" x="109.09648 111.83824 116.769489 121.14842 126.34595 129.0877 134.01895 140.85364 145.78487 149.06908 154.0003 158.37924 162.75818 166.59468 172.88695 177.81818 183.55814 192.46395 195.20572 199.58466 203.9636 207.24779 212.17902 218.205 229.42848 234.35971 239.29094 243.66989 249.96215 254.89337 259.82463 265.0221 268.3063 272.68525 276.52177 281.453 284.19477 289.39225 292.134 299.521 303.3575 307.73646 312.6677 317.59895 321.97789 326.90913 329.65089 332.39265 336.77159 341.9691 344.71086 349.6421 353.47859 356.22035 359.50456 364.4358 368.81474 371.5565 374.29826 379.2295 384.16075 387.99723 393.55967 399.58564 404.51689 411.35157 416.2828 421.21406 423.9558 428.88706 433.8183 439.0158 442.3 447.23124 452.9712 457.90245 462.83369 465.57545 472.96244 477.89369 482.2726 486.1091 490.48805 493.2298 495.97157 500.9028 505.28178">thattheprocessofWizardLMdoesnotresultinsequentialinstructions.Theoutputforbothbaselines</tspan></text>
<text xml:space="preserve" transform="matrix(1.4401739 0 -0 1.4174942 -160.47348 1037.7608)" font-size="10.041984" font-family="NimbusRomNo9L"><tspan y="-489.3988" x="107.14624 109.93791 116.32462 119.66861 124.12725 127.47122 132.49222 136.95087 141.97187 146.43051 149.77448 154.23313 157.0248 161.48345 168.98482 174.00582 181.50719 184.29886 189.31986 196.2689 200.17523 204.63388 212.44655 219.38556 227.19824 232.21924 237.24024 241.69887 246.97092 251.42957 257.81626 262.83726 267.85826 273.6826 278.4626 285.7129">isre-generatedbythesamemodelasourown</tspan></text>
<text xml:space="preserve" transform="matrix(1.4401739 0 -0 1.4174942 -160.47348 1037.7608)" font-size="10.041984" font-family="NimbusRomNo9L" font-style="italic"><tspan y="-489.3988" x="293.21363 298.23463 302.69325 307.71424 311.05824 314.40223 319.42323 323.32957 326.12123 330.02757 335.04856 339.5072">Seq-Instruct</tspan></text>
<text xml:space="preserve" transform="matrix(1.4401739 0 -0 1.4174942 -160.47348 1037.7608)" font-size="10.041984" font-family="NimbusRomNo9L"><tspan y="-489.3988" x="342.2985 347.28935 353.425 356.21665 360.6753 368.48796 372.9466 376.2906 381.31159 384.65559 389.67658 394.69758 401.39558 404.73957 408.08357 413.10456 417.0109 419.80256 423.14656 428.16755 432.6262 435.41786 440.41874 443.2104 450.71177 455.17039 460.19139 464.09776 469.11875 472.4627 479.40174 486.34074 489.59434 494.05299 496.8346">,Llama-3-70B-Instruct,toensureafair</tspan></text>
<text xml:space="preserve" transform="matrix(1.428789 0 -0 1.428789 -160.47348 1037.7608)" font-size="9.9626" font-family="NimbusRomNo9L"><tspan y="-474.621" x="108 112.42339 117.40469 125.155597 130.13689 134.56029 137.87784 140.64745 144.5229 149.5042 154.48549">comparison.</tspan></text>
<text xml:space="preserve" transform="matrix(1.4352039 0 -0 1.4224027 -160.47348 1037.7608)" font-size="10.00733" font-family="NimbusRomNo9L" font-weight="bold"><tspan y="-452.26957" x="107.51728 114.19217 119.09576 124.09943 126.88146 132.44554 137.44919 140.78163 143.56366 148.56732 156.61322 160.87635 165.31961 169.21245 174.77652 177.55857 180.89099">Evaluationresults</tspan></text>
<text xml:space="preserve" transform="matrix(1.4352039 0 -0 1.4224027 -160.47348 1037.7608)" font-size="10.00733" font-family="NimbusRomNo9L"><tspan y="-452.26957" x="194.70186 203.35819 210.28328 214.72655 218.61939 222.51224 226.95549 230.84835 237.213 244.4383 249.44196 253.88523 256.66725 261.6709 266.11418 271.9284 277.4925 280.82493 289.42124 293.86448 298.86814 303.8718 308.31504 313.3187 317.76194 322.2052 328.57987 334.69435 340.80885 352.18717 357.19084 361.63407 364.96653 368.29896 373.3026 376.63508 384.42079 388.864 393.86769 398.3109 405.22599 408.008 415.49348 419.93675 424.94038 432.72608 437.72975 440.51179 444.8049 452.29039 455.0724 459.51567 463.4085 468.41218 472.30503 477.28868 484.51396 489.5176 492.29966 496.7429">WeassesswhetherSITenhancesLLMperformanceincomplextasks,which</tspan></text>
<text xml:space="preserve" transform="matrix(1.4337813 0 -0 1.4238143 -160.47348 1037.7608)" font-size="9.997409" font-family="NimbusRomNo9L"><tspan y="-440.87406" x="107.62396 110.40325 118.18124 123.17993 125.95922 128.7385 133.17736 135.95664 138.7359 141.51519 148.99324 152.32239 156.76125 161.75995 166.75865 169.53794 172.86708 179.79528 187.57326 192.57198 195.35124 198.13053 200.9098 204.23894 208.12795 210.90721 215.34607 222.82415 226.15328 230.59214 235.03098 238.91999 243.91869 248.9174 251.69667 256.69538 261.6941 266.68278 271.6815 279.15956 283.34846 288.09727 292.53608 295.31538 300.3141 304.75294 307.53224 310.3115 315.3102 322.79829 325.57756 330.57627 335.0151 345.27247 350.27116 357.75923 365.5372 369.97605 372.75535 377.75407 384.1224 387.45155 394.66966 400.2282 409.1159 414.11463 421.33274">implicitlyrequiremulti-stepreasoning,byevaluatingthemonmaths(GSM8K;</tspan></text>
<text fill="#4ca6a6" xml:space="preserve" transform="matrix(1.4337813 0 -0 1.4238143 -160.47348 1037.7608)" font-size="9.997409" font-family="NimbusRomNo9L"><tspan y="-440.87406" x="426.60127 433.26954 438.26823 443.26695 448.26567 455.18385 459.62269 464.88133 469.32014 472.09944">Cobbeetal.</tspan></text>
<text xml:space="preserve" transform="matrix(1.4337813 0 -0 1.4238143 -160.47348 1037.7608)" font-size="9.997409" font-family="NimbusRomNo9L"><tspan y="-440.87406" x="474.59877">,</tspan></text>
<text fill="#4ca6a6" xml:space="preserve" transform="matrix(1.4337813 0 -0 1.4238143 -160.47348 1037.7608)" font-size="9.997409" font-family="NimbusRomNo9L"><tspan y="-440.87406" x="479.58757 484.58628 489.58497 494.58369">2021</tspan></text>
<text xml:space="preserve" transform="matrix(1.4337813 0 -0 1.4238143 -160.47348 1037.7608)" font-size="9.997409" font-family="NimbusRomNo9L"><tspan y="-440.87406" x="499.5824">)</tspan></text>
<text xml:space="preserve" transform="matrix(1.4216272 0 -0 1.435987 -160.47348 1037.7608)" font-size="9.912662" font-family="NimbusRomNo9L"><tspan y="-426.28248" x="108.54408 112.9453 117.901638 125.36587 129.76709 134.72342 139.67975 142.43547 147.3918 154.84613 158.14707 165.304 170.26033 177.97238 182.37361 187.32994 193.38658 198.09511 202.49633 205.25206">andcoding(HumanEval;</tspan></text>
<text fill="#4ca6a6" xml:space="preserve" transform="matrix(1.4216272 0 -0 1.435987 -160.47348 1037.7608)" font-size="9.912662" font-family="NimbusRomNo9L"><tspan y="-426.28248" x="210.50577 217.11751 222.07386 226.47507 233.9393 238.34053 243.59426 247.99549 250.7512">Chenetal.</tspan></text>
<text xml:space="preserve" transform="matrix(1.4216272 0 -0 1.435987 -160.47348 1037.7608)" font-size="9.912662" font-family="NimbusRomNo9L"><tspan y="-426.28248" x="253.22933">,</tspan></text>
<text fill="#4ca6a6" xml:space="preserve" transform="matrix(1.4216272 0 -0 1.435987 -160.47348 1037.7608)" font-size="9.912662" font-family="NimbusRomNo9L"><tspan y="-426.28248" x="258.2153 263.17164 268.12797 273.0843">2021</tspan></text>
<text xml:space="preserve" transform="matrix(1.4216272 0 -0 1.435987 -160.47348 1037.7608)" font-size="9.912662" font-family="NimbusRomNo9L"><tspan y="-426.28248" x="278.04069 281.3416 286.9224 290.2233 297.68754 302.08876 307.04508 312.0014 314.75715 317.51289 320.2686 325.2249 330.18125 335.1574 337.91313 345.37736 349.77857 354.7349 359.69126 362.99217 367.39338 371.2494 377.60343 380.35914 385.31547 392.22459 396.6258 401.58213 406.53846 410.93968 415.34089 418.64179 426.09614 428.85185 433.80818 438.20939 443.47303 446.22874 451.18507">).Inaddition,toaddresstheconcernthatthe</tspan></text>
<text xml:space="preserve" transform="matrix(1.4216272 0 -0 1.435987 -160.47348 1037.7608)" font-size="9.912662" font-family="NimbusRomNo9L" font-style="italic"><tspan y="-426.28248" x="458.08619 463.0425 467.44374 472.40007 475.70097 479.00187 483.9582 487.81425 490.56996 494.426 499.38233 503.78355">Seq-Instruct</tspan></text>
<text xml:space="preserve" transform="matrix(1.443006 0 -0 1.4147121 -160.47348 1037.7608)" font-size="10.061731" font-family="NimbusRomNo9L"><tspan y="-421.67448" x="106.93594 111.96681 114.76398 119.794849 124.26225 127.05941 129.85657 134.88744 142.55448 150.38249 153.17966 158.21054 163.24141 169.22815 174.259 178.58554 183.6164 186.96695 191.43436 196.46523 204.12221 211.95023 216.9811 222.01197 226.47937 232.47617 237.50705 241.97444 245.32501 248.67557 253.70642 257.05699 264.885 269.35246 274.3833 278.85075 286.5178 291.54866 299.77919 304.81004 309.27748 314.30833 318.77577 322.1263 324.92347 332.58049 335.37763 339.84504 343.75907 348.78996 352.70396 358.60014 365.8647 373.53175 377.99919 380.79634 384.71037 392.94087 397.1567 401.9461 406.4135 409.21067 414.24156 418.70896 421.5061 429.16313 431.96028 436.99113">pipelinemightdegrademodelperformanceongenerictasks,wealsoevaluatethe</tspan></text>
<text xml:space="preserve" transform="matrix(1.443006 0 -0 1.4147121 -160.47348 1037.7608)" font-size="10.061731" font-family="NimbusRomNo9L" font-style="italic"><tspan y="-421.67448" x="444.6595 449.58973 454.05717 459.088 463.55546 467.31855 472.3494 478.3462 482.26023 486.72764 489.52479 492.32194 495.11909">generalskills</tspan></text>
<text xml:space="preserve" transform="matrix(1.443006 0 -0 1.4147121 -160.47348 1037.7608)" font-size="10.061731" font-family="NimbusRomNo9L"><tspan y="-410.65693" x="106.93594 111.96681 118.43651 124.03083 127.381389 133.52912 136.87967 141.34706 149.487 157.31504 162.3459 167.37677 171.84418 174.64134 178.55536 184.3509 187.14807 192.17894 196.64633 199.4435 204.47438 209.50525 212.30242 217.33327 225.48328 233.31131 238.34218 241.13935 243.93651 246.73368 251.76453 254.56168 259.02909 262.37968 266.84709 271.87797 276.90885 279.706 284.1734 291.7499 296.78077 301.81166 306.27906 310.19309 312.99024 315.78739 320.81828 328.9683 333.4357 338.46659 342.38059 349.64518 354.11259 357.46318 360.2603 365.29118 373.43113 376.7817 385.72657 394.67146 400.81916 411.20289 415.6703 420.70118 428.85118 436.11576 442.8269 449.5381">ofSIT&#x2019;edmodels,includingmultiple-choicequestionanswering(MMLUandARC;</tspan></text>
<text fill="#4ca6a6" xml:space="preserve" transform="matrix(1.443006 0 -0 1.4147121 -160.47348 1037.7608)" font-size="10.061731" font-family="NimbusRomNo9L"><tspan y="-410.65693" x="455.44425 462.70884 467.17625 472.20713 477.238 480.58857 485.61946 490.08686 495.11775">Hendrycks</tspan></text>
<text fill="#4ca6a6" xml:space="preserve" transform="matrix(1.443006 0 -0 1.4147121 -160.47348 1037.7608)" font-size="10.061731" font-family="NimbusRomNo9L"><tspan y="-399.63938" x="106.93594 111.40336 117.01781 121.48522 124.28239">etal.</tspan></text>
<text xml:space="preserve" transform="matrix(1.443006 0 -0 1.4147121 -160.47348 1037.7608)" font-size="10.061731" font-family="NimbusRomNo9L"><tspan y="-399.63938" x="126.797809">,</tspan></text>
<text fill="#4ca6a6" xml:space="preserve" transform="matrix(1.443006 0 -0 1.4147121 -160.47348 1037.7608)" font-size="10.061731" font-family="NimbusRomNo9L"><tspan y="-399.63938" x="132.13056 137.1614 142.19228 147.22316">2021</tspan></text>
<text xml:space="preserve" transform="matrix(1.443006 0 -0 1.4147121 -160.47348 1037.7608)" font-size="10.061731" font-family="NimbusRomNo9L"><tspan y="-399.63938" x="152.25402">;</tspan></text>
<text fill="#4ca6a6" xml:space="preserve" transform="matrix(1.443006 0 -0 1.4147121 -160.47348 1037.7608)" font-size="10.061731" font-family="NimbusRomNo9L"><tspan y="-399.63938" x="157.86846 164.57962 167.37679 171.8442 175.19475 183.0429 187.5103 193.12476 197.59215 200.38932">Clarketal.</tspan></text>
<text xml:space="preserve" transform="matrix(1.443006 0 -0 1.4147121 -160.47348 1037.7608)" font-size="10.061731" font-family="NimbusRomNo9L"><tspan y="-399.63938" x="202.90473">,</tspan></text>
<text fill="#4ca6a6" xml:space="preserve" transform="matrix(1.443006 0 -0 1.4147121 -160.47348 1037.7608)" font-size="10.061731" font-family="NimbusRomNo9L"><tspan y="-399.63938" x="208.23746 213.26831 218.29918 223.33007">2018</tspan></text>
<text xml:space="preserve" transform="matrix(1.443006 0 -0 1.4147121 -160.47348 1037.7608)" font-size="10.061731" font-family="NimbusRomNo9L"><tspan y="-399.63938" x="228.36092 234.52877 238.99617 244.02704 251.8752 256.90608 261.93693 266.40437 271.4352 274.7858 279.2532 284.2841 289.31498 293.78239 301.63053 306.6614 311.1288 316.1597 320.6271 323.9777 328.4451 331.24226 334.0394 339.07029 346.91844 350.26899 353.06614 357.53358 362.56443 367.5953 370.39247 375.42335 378.7739 383.24134 388.2722 393.30308 396.10023 399.45079 404.48167 407.2788 410.07597 414.54338 422.3915 429.6561 432.45326 437.4841 441.95155 446.41896 450.88639 457.0341 461.81343 466.28083 471.89527 476.92613 479.44157 484.47245">)andopen-endedgeneration(length-controlledAlpacaEval2.0;</tspan></text>
<text fill="#4ca6a6" xml:space="preserve" transform="matrix(1.443006 0 -0 1.4147121 -160.47348 1037.7608)" font-size="10.061731" font-family="NimbusRomNo9L"><tspan y="-399.63938" x="490.08674 496.23448">Li</tspan></text>
<text fill="#4ca6a6" xml:space="preserve" transform="matrix(1.4173125 0 -0 1.4403583 -160.47348 1037.7608)" font-size="9.882578" font-family="NimbusRomNo9L"><tspan y="-381.70228" x="108.87452 113.26239 118.51004 122.8979 125.64526">etal.</tspan></text>
<text xml:space="preserve" transform="matrix(1.4173125 0 -0 1.4403583 -160.47348 1037.7608)" font-size="9.882578" font-family="NimbusRomNo9L"><tspan y="-381.70228" x="128.11588">,</tspan></text>
<text fill="#4ca6a6" xml:space="preserve" transform="matrix(1.4173125 0 -0 1.4403583 -160.47348 1037.7608)" font-size="9.882578" font-family="NimbusRomNo9L"><tspan y="-381.70228" x="133.0868 138.02809 142.96938 147.91068 152.85196">2023c</tspan></text>
<text xml:space="preserve" transform="matrix(1.4173125 0 -0 1.4403583 -160.47348 1037.7608)" font-size="9.882578" font-family="NimbusRomNo9L"><tspan y="-381.70228" x="157.23992 160.5308 166.11447 171.35224 178.79383 186.48247 190.87033 195.2582 199.10251 204.04381 207.3347 214.22286 216.97022 221.9115">).Tomeasurethe</tspan></text>
<text xml:space="preserve" transform="matrix(1.4173125 0 -0 1.4403583 -160.47348 1037.7608)" font-size="9.882578" font-family="NimbusRomNo9L" font-style="italic"><tspan y="-381.70228" x="228.80182 232.64615 237.03401 241.9753 246.91658 251.30445 256.24574 258.99308 261.74043 266.68174 271.92936 274.6767 279.618 283.46235 286.2097 290.05403 294.9953 299.38319 302.13053 304.87788 309.81919 314.76048 318.0514 320.79875 325.74003 328.48738 331.23475 336.17604 342.7677 345.51506 350.45637">sequentialinstruction-following</tspan></text>
<text xml:space="preserve" transform="matrix(1.4173125 0 -0 1.4403583 -160.47348 1037.7608)" font-size="9.882578" font-family="NimbusRomNo9L"><tspan y="-381.70228" x="357.89979 362.28767 366.67555 371.61683 376.0047 380.946 383.69337 386.4407 389.18806 391.9354 394.68275 399.07063 402.91496 407.8859 415.02113 421.9093 426.85063 430.69496 435.08283 442.5343 445.28166 452.30818 459.75965 467.4483 472.3896 475.13694 477.88429 480.63163 483.379 486.12635 491.06764 496.00895 500.95024 505.3381">capabilities,weusedtwomultilingual</tspan></text>
<text xml:space="preserve" transform="matrix(1.443006 0 -0 1.4147121 -160.47348 1037.7608)" font-size="10.061731" font-family="NimbusRomNo9L"><tspan y="-377.6043" x="106.93594 111.96681 116.43423 121.46509 125.9325 130.96338 138.7914 143.2588 146.60936 151.64023 158.66332 161.46048 169.59038 172.94094 177.40834 181.87574 186.9066 189.70377 194.73462 202.87458 207.34198 212.37284 220.20085 225.23172 228.58229 233.04969 238.08057 242.54796 247.57883 251.49283 254.29 259.32087 267.45079 271.91819 276.94908 285.08903 292.91703 297.38447 300.1816 305.21247 312.22554 315.57609 320.0435 324.51094 328.42497 333.4558 338.4867 341.28385 346.31474 351.34559 358.47935 365.74394 373.00849 378.03938 385.30393 395.67759">benchmarksinreadingcomprehensionandmathsreasoning:XQuAD(</tspan></text>
<text fill="#4ca6a6" xml:space="preserve" transform="matrix(1.443006 0 -0 1.4147121 -160.47348 1037.7608)" font-size="10.061731" font-family="NimbusRomNo9L"><tspan y="-377.6043" x="399.0281 406.2927 409.64326 412.4404 416.9078 419.70497 424.5849 432.1614 436.6288 442.525 446.9924 449.78956">Artetxeetal.</tspan></text>
<text xml:space="preserve" transform="matrix(1.443006 0 -0 1.4147121 -160.47348 1037.7608)" font-size="10.061731" font-family="NimbusRomNo9L"><tspan y="-377.6043" x="452.305">,</tspan></text>
<text fill="#4ca6a6" xml:space="preserve" transform="matrix(1.443006 0 -0 1.4147121 -160.47348 1037.7608)" font-size="10.061731" font-family="NimbusRomNo9L"><tspan y="-377.6043" x="457.9294 462.9603 467.99119 473.02204">2020</tspan></text>
<text xml:space="preserve" transform="matrix(1.443006 0 -0 1.4147121 -160.47348 1037.7608)" font-size="10.061731" font-family="NimbusRomNo9L"><tspan y="-377.6043" x="478.0529 484.50248 488.96989 494.00077">)and</tspan></text>
<text xml:space="preserve" transform="matrix(1.443006 0 -0 1.4147121 -160.47348 1037.7608)" font-size="10.061731" font-family="NimbusRomNo9L"><tspan y="-366.58677" x="106.93594 115.88082 123.14539 128.73972 140.28052">MGSM(</tspan></text>
<text fill="#4ca6a6" xml:space="preserve" transform="matrix(1.443006 0 -0 1.4147121 -160.47348 1037.7608)" font-size="10.061731" font-family="NimbusRomNo9L"><tspan y="-366.58677" x="143.63112 149.22545 154.25632 159.6494 164.1168 169.5099 173.97731 176.77448">Shietal.</tspan></text>
<text xml:space="preserve" transform="matrix(1.443006 0 -0 1.4147121 -160.47348 1037.7608)" font-size="10.061731" font-family="NimbusRomNo9L"><tspan y="-366.58677" x="179.2899">,</tspan></text>
<text fill="#4ca6a6" xml:space="preserve" transform="matrix(1.443006 0 -0 1.4147121 -160.47348 1037.7608)" font-size="10.061731" font-family="NimbusRomNo9L"><tspan y="-366.58677" x="184.39115 189.422 194.45288 199.48375">2023</tspan></text>
<text xml:space="preserve" transform="matrix(1.443006 0 -0 1.4147121 -160.47348 1037.7608)" font-size="10.061731" font-family="NimbusRomNo9L"><tspan y="-366.58677" x="204.5146 207.86516 213.83179 222.53519 229.59853 232.94908 237.41649 242.44736 247.47823 251.94564 255.85965 261.25273 264.04988 269.08076 276.1441 283.97215 289.003 294.03388 298.50129 303.89439 306.69154">).Werequestthemodelto</tspan></text>
<text xml:space="preserve" transform="matrix(1.443006 0 -0 1.4147121 -160.47348 1037.7608)" font-size="10.061731" font-family="NimbusRomNo9L" font-style="italic"><tspan y="-366.58677" x="314.31544 320.02046 322.8176 326.631 330.545 335.9381 338.73527 342.49836 347.52925 352.5601 356.47413 359.27128 364.30216 367.0993 371.4661 376.6177 379.41487 384.44575 388.91316 396.5299 401.56077 406.0282 409.94224 412.73939 417.77024 421.68428 431.54478 435.8713 440.9022 445.93309 448.73023 453.76109 457.11167 462.14253 464.93968 468.29026 471.0874 476.1183 481.14915 486.18003 491.2109 496.24177">Firsttranslate,thenperformchain-of-thought</tspan></text>
<text xml:space="preserve" transform="matrix(1.4187523 0 -0 1.4388968 -160.47348 1037.7608)" font-size="9.892616" font-family="NimbusRomNo9L" font-style="italic"><tspan y="-349.59288" x="108.76403 112.23634 116.62866 121.57497 125.4232 130.3695 135.31581 138.06597 143.01227 147.85965 152.85543 157.80173 162.74803 170.20706 172.95722 177.90352 181.75176 184.5019 187.25206 194.16699 199.1133 204.05962 207.90784 214.50621 218.89853">reasoning,andlastlyanswer</tspan></text>
<text xml:space="preserve" transform="matrix(1.4187523 0 -0 1.4388968 -160.47348 1037.7608)" font-size="9.892616" font-family="NimbusRomNo9L"><tspan y="-349.59288" x="225.48999 228.24016 233.18647 240.09149 245.03781 249.98412 254.37644 258.22465 260.9748 263.72496 268.67127 273.61756 277.4658 283.0749 288.5752 291.32536 296.27168 300.664 303.41416 306.1643 310.4577 315.45347 322.59593 329.501 333.64604 338.34504 342.73738 345.48753 350.4338 354.82615 357.5763 364.48139 372.17784 377.12416 382.07048 386.4628 389.21296 395.5739 400.5202 407.98915 412.93544 417.88175">thequestions.Finally,weevaluatemodelsonour</tspan></text>
<text xml:space="preserve" transform="matrix(1.4187523 0 -0 1.4388968 -160.47348 1037.7608)" font-size="9.892616" font-family="NimbusRomNo9L" font-style="italic"><tspan y="-349.59288" x="423.69029 428.63658 433.0289 437.97523 444.0196 448.41194 453.35826">SeqEval</tspan></text>
<text xml:space="preserve" transform="matrix(1.4187523 0 -0 1.4388968 -160.47348 1037.7608)" font-size="9.892616" font-family="NimbusRomNo9L"><tspan y="-349.59288" x="456.108 461.10377 466.05006 469.8983 472.64845 477.59477 485.0538 491.09819 497.14256 505.9371">,usingLLM-</tspan></text>
<text xml:space="preserve" transform="matrix(1.428789 0 -0 1.428789 -160.47348 1037.7608)" font-size="9.9626" font-family="NimbusRomNo9L"><tspan y="-341.157" x="108 112.42339 116.29884 119.61639 124.03978 127.35732 131.23278 136.21407 141.19536 146.17665 153.0907 155.8603 163.33225 171.08315 175.50655 179.92995 183.8054 188.7867 192.10425 199.0183 201.7879 206.7692 213.68325 217.0008 221.4242 225.29965 230.28095 235.26224 240.24353 244.11899 251.03304 256.01435 260.99565 265.41905 268.18864 270.95823 273.7278 281.19978 285.62318 290.60447 298.07643 301.39396 306.37525 309.14485 311.91444 316.64668 323.83967 326.60926 331.59056 339.0625 342.38005 346.80345 349.57304 356.4871 361.46839 368.94035 373.36375 378.34504 382.2205 389.41349 393.83689 397.15443 399.924 404.9053 412.37727 416.25273 420.67613 425.6574 430.6387 435.0621 440.0434 442.813 445.58259 450.00599 455.26625 458.03584 463.01713 466.89259 469.66218 472.9797 477.961 482.3844 485.154 487.92359 492.90489 497.88618 501.76164">as-a-Judgetomeasuretheresponsequalityandfollowingrateonansweringsequentialinstructions.</tspan></text>
<text xml:space="preserve" transform="matrix(1.414429 0 -0 1.4432949 -160.47348 1037.7608)" font-size="9.862471" font-family="NimbusRomNo9L"><tspan y="-321.5039" x="108.623729 117.12517 123.52592 126.81013 131.18907 136.1203 141.05153 144.33573 149.0993 153.47824 156.22002 160.97374 164.25794 168.63687 172.47338 177.4046 180.14638 182.88816 188.74646 193.67769 200.62087 203.36264 208.29387 214.69461 219.07357 224.00479 228.78807 233.5615 239.96224 244.89348 249.27242 254.20365 258.58259 263.51383 271.18684 275.56578 278.84996 283.7812 289.63954 292.3813 299.32447 304.55158 308.9305 313.86177 316.60353">WereportallresultsontheabovebenchmarksinTable</tspan></text>
<text fill="#4ca6a6" xml:space="preserve" transform="matrix(1.414429 0 -0 1.4432949 -160.47348 1037.7608)" font-size="9.862471" font-family="NimbusRomNo9L"><tspan y="-321.5039" x="322.9944">4</tspan></text>
<text xml:space="preserve" transform="matrix(1.414429 0 -0 1.4432949 -160.47348 1037.7608)" font-size="9.862471" font-family="NimbusRomNo9L"><tspan y="-321.5039" x="327.92564 333.34999 341.85145 348.2522 353.73576 358.667 365.6102 368.35197 373.2832 377.66215 382.42573 387.90928 391.19346 399.23136 403.6103 407.98927 412.9205 415.66227 419.79466 424.57795 428.95689 434.80534 439.73658 444.1155 446.85728 449.59904 453.97798 459.284 464.21525 468.59419 471.8784 475.16258 480.0938 483.37803 491.05104 495.42997 500.3612 504.74015">.We&#xfb01;ndthatSITachievesbetterperformance</tspan></text>
<text xml:space="preserve" transform="matrix(1.443006 0 -0 1.4147121 -160.47348 1037.7608)" font-size="10.061731" font-family="NimbusRomNo9L"><tspan y="-316.98204" x="106.93594 109.73311 117.702 122.16942 124.966579 130.70175 134.61577 139.08318 144.11405 149.14492 153.61232 158.64318 161.44034 164.2375 168.70491 174.43004 177.2272 181.6946 185.60861 190.63947 197.4915 201.95891 206.98978 214.95868 219.42607 222.22324 230.05127 235.08214 238.99616 244.73134 249.19873 251.9959 257.73109 262.76194 269.05055 271.8477 276.87858 284.27394 289.3048 293.77223 298.8031 303.2705 306.6211 309.41825 316.82368 319.62083 324.08827 328.00227 333.03315 336.94718 343.93003 350.07777 355.1086 357.90577 364.7578 369.7887 373.13926 378.0192 382.9092 387.37663 394.22868 397.02583 402.0567 406.5241 412.2492 416.16325 420.63069 425.66154 430.6924 435.15983 440.1907 442.98786 445.785 450.2524 455.98759 458.78474 463.8156 467.72966 470.5268 473.87736 478.90824 483.37565 486.1728 488.96995 494.00083">inallsequentialtasksandalmostallofthegenerictasks.Thisprovesthatsequentialinstruction</tspan></text>
<text xml:space="preserve" transform="matrix(1.414429 0 -0 1.4432949 -160.47348 1037.7608)" font-size="9.862471" font-family="NimbusRomNo9L"><tspan y="-299.9052" x="109.09648 111.83824 116.769489 121.70072 124.44249 129.37372 136.67194 141.05088 145.42983 152.71817 157.6494 162.58063 167.51186 171.34836 176.45713 182.48311 188.50908 197.27681 201.11331 206.7645 209.50627 214.4375 218.274 221.01578 224.29998 229.2312 233.61014 236.35192 239.09369 244.02492 248.95615 252.24036 255.52455 260.45579 263.18769 265.92945 270.61415 277.73484 280.4766 285.40785 292.7061 297.08503 302.01628 309.30464 313.437 318.21046 322.5894 329.88764 334.81889 339.1978 344.12907 348.508 351.7922 356.17115 361.2799 364.5641 368.94303 373.32197 377.15849 382.08973 387.02098 389.76274 394.69398 401.98234 406.36128 410.74024 415.67149 420.0504 424.98167 427.72343 430.46519 433.20695 435.9487 438.69047 443.0694 446.90589 452.43873 455.72294 463.39595 468.32719 471.6114 476.39469 481.17799 485.55693 493.22993 497.6089 502.54014 505.2819">tuningcanboostLLMs&#x2019;instruction-followingandevengeneralreasoningcapabilities.Improvements</tspan></text>
<text xml:space="preserve" transform="matrix(1.4422987 0 -0 1.415406 -160.47348 1037.7608)" font-size="10.056799" font-family="NimbusRomNo9L"><tspan y="-294.8023" x="106.98839 111.453609 114.80251 121.74171 126.206928 131.23534 136.26374 140.17583 142.9716 146.8837 149.67948 154.14472 159.17311 164.44286 167.79178 172.82018 178.64307 183.67147 188.69986 191.49564 198.998 206.25902 209.05481 214.0832 218.54843 223.01366 227.47888 232.47711 238.06871 240.86449 245.32971 250.35811 257.06599 262.0944 270.71308 275.17829 280.2067 287.7091 293.41133 298.43974 301.23554 306.26396 309.61286 316.87388 324.37626 329.40467 333.8699 336.6657 341.13093 345.04304 349.50828 352.30406 356.21617 361.20436 368.46534 373.49375 376.28956 380.75477 388.25718 391.05299 396.0814 401.1098 403.90559 408.37083 412.83604 415.63185 420.09709 426.48316 429.27897 434.30738 438.77259 444.0424 449.0708 454.0992 459.92213 467.74629 472.21153 475.00733 480.03575 485.06416 492.56654 495.36235">areconsistentforbothAlpaca,FlanCoTandTulu-V2datasets,whichindicatesthatourmethodis</tspan></text>
<text xml:space="preserve" transform="matrix(1.443006 0 -0 1.4147121 -160.47348 1037.7608)" font-size="10.061731" font-family="NimbusRomNo9L"><tspan y="-283.92936" x="106.58048 113.84505 116.64221 121.67308 126.14049 128.93766 137.05747 141.52486 146.55573 151.5866 154.38376 157.18093 161.64833 166.11574 171.1466 173.94377 181.50012 184.29729 192.42717 196.74364 201.77449 204.57166 208.48567 211.28284 214.08 219.11087 227.2307 230.02787 235.05872 238.97274 241.7699 245.12046 250.1513 254.61873 257.41587 260.213 265.2439 273.36375 278.3946 282.86204 285.65919 290.1266 297.58235 304.8469 309.72685 314.19429 317.54484 322.01228 324.80943 327.60658 333.37196 340.6365 348.19288 353.22377 357.69117 365.5192 370.55009 375.58094 379.49497 382.2921 385.6427 390.1101 392.90727 400.46363 403.26078 408.29167 412.75907">widelyapplicabletoexistinginstructiondata.Overall,wedemonstratethat</tspan></text>
<text xml:space="preserve" transform="matrix(1.443006 0 -0 1.4147121 -160.47348 1037.7608)" font-size="10.061731" font-family="NimbusRomNo9L" font-style="italic"><tspan y="-283.92936" x="418.65324 423.6841 428.15153 433.1824 436.533 439.88356 444.91444 448.82847 451.6256 455.5396 460.5705 465.0379">Seq-Instruct</tspan></text>
<text xml:space="preserve" transform="matrix(1.443006 0 -0 1.4147121 -160.47348 1037.7608)" font-size="10.061731" font-family="NimbusRomNo9L"><tspan y="-283.92936" x="471.10334 475.57075 478.92134 483.38874 487.85615 490.6533 495.12074">creates</tspan></text>
<text xml:space="preserve" transform="matrix(1.443006 0 -0 1.4147121 -160.47348 1037.7608)" font-size="10.061731" font-family="NimbusRomNo9L"><tspan y="-272.9118" x="106.93594 111.96681 114.512439 119.402439 123.86985 127.220409 131.13442 135.60182 140.62264 145.6535 148.45067 153.48152 158.5124 161.86296 166.89382 171.92469 176.39209 179.18926 181.98642 184.78359 192.30977 195.10694 200.13779 204.0518 206.84897 210.19953 215.23038 219.69779 222.49495 225.29212 230.32297 235.35385 238.7044 241.50157 246.53244 251.56331 254.36046 259.39134 266.9175 271.9484 276.4158 279.21296 283.6804 287.59443 292.06184 294.85899 298.773 304.43778 313.14115 320.10389 322.90104 327.9319 332.39933 335.19648 340.22734 345.2582 352.22096 356.68836 361.71925 369.54728 374.57814 377.9287 382.39613 387.427 391.8944 396.9253 400.83934 403.39497 408.2749 415.23765 418.58824 423.05564 426.96968 432.00053 434.79768 437.59483 444.00419 447.35475 452.38563 458.2315 462.14555 466.61296 471.64384 476.67469 481.14213 486.17298 488.97013 491.76728 496.2347">diverse,high-qualityinstruction-tuningdatasets.Weincludecomprehensiveresultsforsequential</tspan></text>
<text xml:space="preserve" transform="matrix(1.428789 0 -0 1.428789 -160.47348 1037.7608)" font-size="9.9626" font-family="NimbusRomNo9L"><tspan y="-259.314" x="108 110.7696 115.19299 119.06844 124.04974 130.41585 137.60884 140.37845 143.14806 150.62 153.3896 158.3709 162.7943 165.5639 171.3721 174.68965 179.67095 182.44055 185.21016 189.94239 197.13538 199.90499 204.88628 212.35822 215.67577 220.09917 222.86878 227.29218 233.65828 236.42789 243.89983 251.09282 256.07414 261.05543 265.47883 270.4601 275.4414 278.211">taskswiththeirfollowingratesinAppendix</tspan></text>
<text fill="#4ca6a6" xml:space="preserve" transform="matrix(1.428789 0 -0 1.428789 -160.47348 1037.7608)" font-size="9.9626" font-family="NimbusRomNo9L"><tspan y="-259.314" x="285.683">C</tspan></text>
<text xml:space="preserve" transform="matrix(1.428789 0 -0 1.428789 -160.47348 1037.7608)" font-size="9.9626" font-family="NimbusRomNo9L"><tspan y="-259.314" x="292.328">.</tspan></text>
<text xml:space="preserve" transform="matrix(1.428789 0 -0 1.428789 -160.47348 1037.7608)" font-size="11.9552" font-family="NimbusRomNo9L" font-weight="bold"><tspan y="-229.66" x="108 125.9328 134.56446 141.21155 147.18915 150.5127 156.4903 161.14087 164.46442 172.10379 178.08139 184.72849 194.36438 202.99604 206.31958 210.97016 216.27826 222.92536 227.57593 232.2265 235.55005 241.52765">4AnalysisandDiscussion</tspan></text>
<text xml:space="preserve" transform="matrix(1.428789 0 -0 1.428789 -160.47348 1037.7608)" font-size="9.9626" font-family="NimbusRomNo9L" font-weight="bold"><tspan y="-205.791" x="108 112.9813 115.47195 130.41585 134.2913 140.65741 146.19661 150.62001 156.15921 161.69841 166.12181 171.66101 176.08441 182.99846 189.64351 194.06691 199.60611 204.5874 207.90496 215.9348 219.25235 224.79155 231.7056 238.89859 243.32199 245.99198 250.97327 253.74288 259.28208 266.75404 272.59214 277.57344 281.99684 285.31437 290.29566 297.20973 303.85478 308.27818 313.81739 316.58699 322.1262 330.15608 336.04399 340.46739 344.89079 347.95927 352.94056 357.36396 365.6628 370.6441 376.18333 380.60673">4.1IsSequenceLengththeDrivingFactorBehindPerformance</tspan></text>
<text xml:space="preserve" transform="matrix(1.4187523 0 -0 1.4388968 -160.47348 1037.7608)" font-size="9.892616" font-family="NimbusRomNo9L"><tspan y="-184.01024" x="108.40249 118.04779 122.74678 127.13911 130.43334 133.18349 137.57582 142.52213 145.27228 152.16742 155.36273 159.75505 164.14737 166.89752 171.84383 177.6409 180.39105 187.8402 192.7865 197.7328 203.52988 207.9222 212.8685 220.56496 225.51126 229.90358 233.19783 235.94799 239.79622 244.74253 252.19165 257.13798 262.93504 266.22929 274.7765 279.16883 284.11515 291.56428 297.0646 300.35884 308.91596 311.6661 318.01716 320.76734 325.71363 332.6088 335.35896 339.75129 344.6976 349.6439 352.39408 359.8432 364.78953 370.58659 373.33674 378.28306 385.17823 387.92839 391.2226 395.61494 398.36509 403.3114 406.06156 411.00785 418.457 423.40333 427.79566 430.5458 434.93815 439.91413 447.05659 452.0029 456.39524 459.68946 466.58464 472.08494 475.37919 483.93629 488.8826 491.63276 496.0251 498.77525 503.72157">AvariablefactorinourcomparisonofITandSITisthelengthofthetrainingdata,whereSITyields</tspan></text>
<text xml:space="preserve" transform="matrix(1.4387561 0 -0 1.418891 -160.47348 1037.7608)" font-size="10.032098" font-family="NimbusRomNo9L"><tspan y="-175.6186" x="107.25182 110.04075 115.0568 120.072849 125.0889 129.54315 135.35173 140.36779 145.38384 149.83808 153.74056 156.52948 159.3184 164.33446 169.35051 175.72089 180.17513 185.19118 192.67513 196.01581 200.47006 204.37255 209.3886 214.40464 219.42069 223.32317 227.77742 231.6799 236.6558 239.44474 244.46079 249.47682 255.8472 258.63615 266.44108 271.45713 274.24604 277.03498 281.48924 284.27815 287.06709 289.856 297.3399 302.35597 307.37199 312.38804 316.84226 319.62117 322.4101 327.42613 334.91004 341.83219 346.84825 351.30247 355.20497 362.1271 369.93208 374.9481 379.96415 384.4184 389.6752 397.48017 402.4962 405.83689 412.759 415.54795 420.56398 425.01823 432.50215 435.29109 440.3071 445.32316 448.11207 452.5663 457.02058 462.27738 465.61805 471.01533 475.9912 485.46156 490.47758 493.26649 496.05543">longerquestionsandresponses,thusimplicitlyupdatingabasemodelmorethantypicalIT.While</tspan></text>
<text xml:space="preserve" transform="matrix(1.4373361 0 -0 1.4202927 -160.47348 1037.7608)" font-size="10.022197" font-family="NimbusRomNo9L"><tspan y="-164.47104" x="107.35779 110.14397 115.15507 117.94124 124.31535 132.11263 134.8988 139.90991 144.921 150.18267 155.19377 159.4532 164.31397 171.2393 176.25041 180.70026 185.15012 192.6367 197.49747 202.35825 206.80809 210.1455 212.93166 217.94277 222.95386 227.86475 232.3146 239.8112 242.59738 250.08397 255.09506 258.43247 261.21864 266.2297 272.0426 275.38 279.82987 283.7285 288.17835 292.6282 295.9656 300.41545 307.90205 312.91316 320.39973 323.18589 328.197 332.09565 334.88179 338.21919 343.2303 347.68016 350.4663 353.25245 358.26356 365.75016 370.19999 375.2111 380.2222 388.01948 392.4693 397.4804 400.26658 404.71644 407.5026 410.28874 415.29985 422.78645 425.57258 428.35874 433.27967 440.205 449.26506 452.0512 456.50108 460.95094 464.28834 469.2994 475.42298 484.3327 489.31376 496.5498">thismighthavebeenoverlookedinpriorresearchoninstructionaugmentationlikeWizardLM,we</tspan></text>
<text xml:space="preserve" transform="matrix(1.4201905 0 -0 1.4374397 -160.47348 1037.7608)" font-size="9.902644" font-family="NimbusRomNo9L"><tspan y="-151.66574" x="108.653888 113.60521 116.90279 121.29956 126.250888 130.64766 133.94524 140.83748 143.59043 148.54175 151.83934 156.23612 163.13826 167.53504 172.48636 175.2393 179.63608 182.389 185.14196 190.09328 197.54007 201.78832 206.73963 211.69095 216.08773 219.38532 222.13826 229.84252 234.23929 239.19062 241.94356 248.29116 251.0441 258.5008 261.2537 265.79905 270.60185 274.9986 278.85075 281.60365 284.35658 289.2584 293.65516 296.40809 303.3003 310.45 315.40135 319.7981 322.55104 327.50239 331.89915 337.7021 343.20799 346.50556 352.55607 355.2991 361.65663 366.60795 369.36088 374.31224 379.26356 383.6603 389.45335 397.15763 401.55439 404.3073 407.6049 410.35783 417.25004 421.10218 425.49894 430.45027 433.74784 438.1446 444.5021 448.89888 452.19645 459.08869 463.48545 466.23835 468.99128 472.28889 475.0418 479.79508 484.7464 487.49934 491.8961 499.3429 502.09584">preparethreeablationexperimentstoinvestigatewhetherSIT&#x2019;shighermetricscoresareattributedto</tspan></text>
<text xml:space="preserve" transform="matrix(1.428789 0 -0 1.428789 -160.47348 1037.7608)" font-size="9.9626" font-family="NimbusRomNo9L"><tspan y="-141.675" x="108 115.7509 120.17429 123.49184 127.91523 130.68483 138.15677 143.13806 147.36222 152.3435 155.11312 160.0944 167.56635 175.31725 180.29854 183.61609 190.53014 193.29975 196.6173 201.0407 203.8103 208.7916 211.5612 216.5425 224.01444 226.78404 231.76534 236.647 241.0704 246.0517 249.92716">merelyhavingmoretrainingtokens.</tspan></text>
<text xml:space="preserve" transform="matrix(1.428789 0 -0 1.428789 -160.47348 1037.7608)" font-size="9.9626" font-family="NimbusRomNo9L"><tspan y="-120.742" x="108">&#x2022;</tspan></text>
<text xml:space="preserve" transform="matrix(1.4373361 0 -0 1.4202927 -160.47348 1037.7608)" font-size="10.022197" font-family="NimbusRomNo9L"><tspan y="-121.464298" x="115.46827 121.591838 126.602939 133.52828 139.10063 142.43802 146.33666 151.59832 154.38449 160.7586">The&#xfb01;rstisa</tspan></text>
<text xml:space="preserve" transform="matrix(1.4373361 0 -0 1.4202927 -160.47348 1037.7608)" font-size="10.022197" font-family="NimbusRomNo9L" font-weight="bold"><tspan y="-121.464298" x="167.68094 173.2533 178.26439 181.60179 186.61289 189.95029 192.73647 197.03598 201.94687 206.39672">data-level</tspan></text>
<text xml:space="preserve" transform="matrix(1.4373361 0 -0 1.4202927 -160.47348 1037.7608)" font-size="10.022197" font-family="NimbusRomNo9L"><tspan y="-121.464298" x="211.65985 215.95938 220.97048 225.98157 230.43143 233.76883 236.555 244.35228 248.80213 253.81324 259.0749 266.3109 271.32203 275.77189 279.10929 286.0346 293.27067 300.19599 305.10688 309.55674 314.00657 321.49317 324.27934 329.2904 336.21577 339.00193 344.01304 346.79917 351.24903 356.51069 359.29685 362.63423 367.08409 369.87025 374.88136 377.6675 382.6786 390.1652 392.95137 397.96247 402.87333 407.32319 412.33427 418.7084 423.15827 428.16935 433.18046 437.6303 442.89198 446.22935 451.24046 457.0433 460.38069 468.97975 473.4296 478.44068 485.92729 491.49964 494.837 500.22898">experimentwherewekeepthetotaltrainingtokensequalforITandSIT.</tspan></text>
<text xml:space="preserve" transform="matrix(1.4323565 0 -0 1.4252306 -160.47348 1037.7608)" font-size="9.9874739" font-family="NimbusRomNo9L"><tspan y="-110.106227" x="115.86969 121.97203 126.96577 129.7423 136.11429 138.89081 145.27278 150.26653 155.26027 160.25402 167.17533 172.16907 179.64969 184.64344 187.96927 192.96302 197.95676 201.28258 205.71703 209.60214 213.48726 216.0141 220.85802 225.29245 228.06897 235.55957 239.4447 243.87914 251.6494 256.64314 259.41966 262.19618 267.18989 274.6705 279.66426 284.09867 286.87519 293.79649 297.1223 300.44816 305.4419 315.709 321.26203 324.58787 333.1771 338.17085 342.60527 345.38179 352.3031 357.2968 362.29054 365.06706 367.84358 373.10697 375.88349 378.66 385.04203 387.81855 392.81227 395.58879 400.0232 405.28663 410.28034 415.27406 418.05058 423.0443 428.03804 433.30146 436.07795 441.0717 445.9655 450.39997 455.39369 461.7757 466.2101 471.20384 476.19758 480.632 485.8954 489.22123 495.32359 498.1001 501.98524">ThisisdonebyprogressivelysamplingdatafromSITdatauntilitstotaloutputtokensequalIT&#x2019;s.</tspan></text>
<text xml:space="preserve" transform="matrix(1.428789 0 -0 1.428789 -160.47348 1037.7608)" font-size="9.9626" font-family="NimbusRomNo9L"><tspan y="-98.923" x="116.159 122.24615 127.22745 129.99706 136.36316 139.68071 144.10411 149.0854 154.0667 158.4901 162.9135 169.2796 172.04921 177.0305 183.94455 189.48375 192.8013 201.37909 206.36038 210.78379 213.55339 220.46744 223.78499 227.10254 232.08383 242.32538 247.30667 252.28797 261.97163 264.7412 272.21318 277.19447 282.17576 291.8594 294.629 299.6103 303.48576 306.25535 310.67875 315.66004 320.08345 324.50685 328.3823">ThisreducestheSITdatafrom52Kto36Kinstances.</tspan></text>
<text xml:space="preserve" transform="matrix(1.428789 0 -0 1.428789 -160.47348 1037.7608)" font-size="9.9626" font-family="NimbusRomNo9L"><tspan y="-82.909" x="108">&#x2022;</tspan></text>
<text xml:space="preserve" transform="matrix(1.443006 0 -0 1.4147121 -160.47348 1037.7608)" font-size="10.061731" font-family="NimbusRomNo9L"><tspan y="-83.73397" x="115.32052 122.58508 126.90156 131.93244 134.7296 139.81078 144.27819 149.63103 156.64406 160.55808 163.35524 166.7058 169.50296 173.97035 176.76752 181.23493">Next,atastricter</tspan></text>
<text xml:space="preserve" transform="matrix(1.443006 0 -0 1.4147121 -160.47348 1037.7608)" font-size="10.061731" font-family="NimbusRomNo9L" font-weight="bold"><tspan y="-83.73397" x="187.12999 189.92716 195.52149 199.43549 202.78606 207.81691 213.41124 217.87865 224.89167 227.68883 232.0053 236.94562 241.41303">instancelevel</tspan></text>
<text xml:space="preserve" transform="matrix(1.443006 0 -0 1.4147121 -160.47348 1037.7608)" font-size="10.061731" font-family="NimbusRomNo9L"><tspan y="-83.73397" x="244.20606 249.28725 256.55183 263.56489 268.0323 273.06318 278.09403 280.89118 284.24177 289.2726 294.6154 298.84135 303.72126 308.1887 311.53926 319.11576 321.9129 326.9438 330.8578 333.65495 338.12239 343.15324 347.62068 352.08808 354.89533 361.36503 364.16218 368.6296 373.66047 378.69136 381.4885 389.065 394.09587 398.5633 401.36045 408.625 413.0924 417.55986 425.13636 428.4869 437.18028 441.64768 446.67857 454.25505 459.84938 463.19996 471.89329 476.92417 481.39158 484.18873 491.20179 493.99894">,wecontroleveryinstance&#x2019;slengthbetweenITandSITdatato</tspan></text>
<text xml:space="preserve" transform="matrix(1.4302172 0 -0 1.4273623 -160.47348 1037.7608)" font-size="9.972557" font-family="NimbusRomNo9L"><tspan y="-72.07196" x="116.35169 121.337978 128.24895 131.02133 136.0076 142.92856 146.80789 151.23569 158.99434 163.42215 168.99681 175.09004 180.07631 182.84868 189.22116 191.99353 198.35604 203.3423 208.32857 213.31485 220.2358 225.22208 232.6915 235.46389 238.23625 242.66407 245.98493 250.41274 253.18512 255.70818 260.54487 264.9727 267.74507 275.2145 279.64234 284.62864 289.61494 292.3873 297.37358 304.853 309.8393 314.26713 317.0395 323.9505 328.9368 333.92308 336.69544 341.68174 344.4541 350.8266 354.14747 357.46833 362.45463 372.69645 376.0173 384.6037 389.03153 394.01783 401.48728 407.03205 410.3529 415.70817 420.69447 427.89466 430.66703 433.43943 440.90888 443.68125 448.66755 455.5885 459.46784 463.89567 471.65434 478.5653 481.3377 485.76554 490.7518 495.7381 498.51048">bethesame.ThisisdonebyiterativelyaddingdatapointsfromITandSIT,withthesamelength</tspan></text>
<text xml:space="preserve" transform="matrix(1.428789 0 -0 1.428789 -160.47348 1037.7608)" font-size="9.9626" font-family="NimbusRomNo9L"><tspan y="-42.112" x="303.509">7</tspan></text>
</g>
</g>
</svg>
